<svg width="73" height="73" viewBox="0 0 73 73" fill="none" xmlns="http://www.w3.org/2000/svg">
<g id="Frame">
<g id="SVGRepo_iconCarrier">
<path id="Vector" d="M1.5625 36.5C1.5625 44.9704 4.92733 53.0938 10.9168 59.0832C16.9062 65.0727 25.0296 68.4375 33.5 68.4375C41.9704 68.4375 50.0938 65.0727 56.0832 59.0832C62.0727 53.0938 65.4375 44.9704 65.4375 36.5C65.4375 28.0296 62.0727 19.9062 56.0832 13.9168C50.0938 7.92733 41.9704 4.5625 33.5 4.5625C25.0296 4.5625 16.9062 7.92733 10.9168 13.9168C4.92733 19.9062 1.5625 28.0296 1.5625 36.5Z" fill="#FEB200"/>
<path id="Vector_2" d="M49.6209 22.2041L28.9376 42.8874L20.4209 34.3708L16.1626 38.6291L28.9376 51.4041L53.8793 26.4624L49.6209 22.2041Z" fill="#F7F6F6"/>
</g>
</g>
</svg>
