<svg width="223" height="68" viewBox="0 0 223 68" fill="none" xmlns="http://www.w3.org/2000/svg">
<path d="M95.968 28.432C95.968 30.768 95.368 32.68 94.168 34.168C92.984 35.672 91.368 36.424 89.32 36.424C87.288 36.424 85.936 35.92 85.264 34.912C84.848 34.272 84.64 33.488 84.64 32.56C84.64 31.648 84.72 30.736 84.88 29.824L87.952 12.448H92.032L91.312 16.456H97.288L96.688 19.84H91.984C93.12 20.752 94.064 21.936 94.816 23.392C95.584 24.848 95.968 26.528 95.968 28.432ZM89.944 32.992C90.44 32.992 90.864 32.592 91.216 31.792C91.568 30.992 91.744 29.936 91.744 28.624C91.744 27.328 91.608 26.016 91.336 24.688C91.08 23.36 90.768 22.32 90.4 21.568L88.96 29.8C88.864 30.36 88.816 30.848 88.816 31.264C88.816 32.416 89.192 32.992 89.944 32.992ZM105.149 16.12C106.877 16.12 108.181 16.496 109.061 17.248C109.749 17.84 110.093 18.664 110.093 19.72C110.093 20.072 110.053 20.456 109.973 20.872L109.469 23.68C109.165 25.376 108.453 26.576 107.333 27.28C106.229 27.984 104.749 28.336 102.893 28.336C101.037 28.336 99.6773 27.984 98.8133 27.28C98.1733 26.752 97.8533 25.96 97.8533 24.904C97.8533 24.536 97.8933 24.128 97.9733 23.68L98.4773 20.872C99.0373 17.704 101.261 16.12 105.149 16.12ZM105.797 21.352C105.829 21.192 105.845 20.992 105.845 20.752C105.845 20.496 105.741 20.216 105.533 19.912C105.325 19.608 104.957 19.456 104.429 19.456C103.917 19.456 103.485 19.632 103.133 19.984C102.781 20.32 102.557 20.776 102.461 21.352L102.149 23.152C102.117 23.312 102.101 23.52 102.101 23.776C102.101 24.016 102.205 24.28 102.413 24.568C102.621 24.856 102.981 25 103.493 25C104.021 25 104.461 24.824 104.813 24.472C105.165 24.104 105.389 23.664 105.485 23.152L105.797 21.352ZM118.696 16.12C120.424 16.12 121.728 16.496 122.608 17.248C123.296 17.84 123.64 18.664 123.64 19.72C123.64 20.072 123.6 20.456 123.52 20.872L123.016 23.68C122.712 25.376 122 26.576 120.88 27.28C119.776 27.984 118.296 28.336 116.44 28.336C114.584 28.336 113.224 27.984 112.36 27.28C111.72 26.752 111.4 25.96 111.4 24.904C111.4 24.536 111.44 24.128 111.52 23.68L112.024 20.872C112.584 17.704 114.808 16.12 118.696 16.12ZM119.344 21.352C119.376 21.192 119.392 20.992 119.392 20.752C119.392 20.496 119.288 20.216 119.08 19.912C118.872 19.608 118.504 19.456 117.976 19.456C117.464 19.456 117.032 19.632 116.68 19.984C116.328 20.32 116.104 20.776 116.008 21.352L115.696 23.152C115.664 23.312 115.648 23.52 115.648 23.776C115.648 24.016 115.752 24.28 115.96 24.568C116.168 24.856 116.528 25 117.04 25C117.568 25 118.008 24.824 118.36 24.472C118.712 24.104 118.936 23.664 119.032 23.152L119.344 21.352ZM136.323 24.304C136.323 24.72 136.531 24.928 136.947 24.928C137.379 24.928 137.739 24.848 138.027 24.688L137.907 27.4C137.139 28.024 136.275 28.336 135.315 28.336C133.555 28.336 132.579 27.696 132.387 26.416C131.587 27.696 130.411 28.336 128.859 28.336C126.235 28.336 124.923 27.208 124.923 24.952C124.923 24.568 124.963 24.144 125.043 23.68L125.547 20.872C125.803 19.432 126.387 18.288 127.299 17.44C128.227 16.576 129.507 16.144 131.139 16.144C132.147 16.144 132.947 16.36 133.539 16.792L134.763 9.784H138.867L136.347 24.016C136.331 24.112 136.323 24.208 136.323 24.304ZM129.219 23.152C129.187 23.296 129.171 23.496 129.171 23.752C129.171 24.008 129.291 24.264 129.531 24.52C129.771 24.76 130.171 24.88 130.731 24.88C131.307 24.88 131.803 24.656 132.219 24.208L132.939 20.176C132.763 19.776 132.347 19.576 131.691 19.576C130.459 19.576 129.739 20.168 129.531 21.352L129.219 23.152ZM153.971 16.12C155.555 16.12 156.667 16.56 157.307 17.44C157.787 18.064 158.027 18.824 158.027 19.72C158.027 20.088 157.987 20.472 157.907 20.872L157.427 23.56C157.155 25.096 156.443 26.28 155.291 27.112C154.155 27.928 152.715 28.336 150.971 28.336C149.243 28.336 147.915 27.992 146.987 27.304C146.251 26.76 145.883 26 145.883 25.024C145.883 24.768 145.907 24.504 145.955 24.232L148.499 9.784H152.579L151.355 16.768C152.027 16.336 152.899 16.12 153.971 16.12ZM153.755 21.232C153.771 21.104 153.779 20.928 153.779 20.704C153.779 20.464 153.675 20.216 153.467 19.96C153.275 19.688 152.843 19.552 152.171 19.552C151.515 19.552 151.043 19.752 150.755 20.152L150.059 24.16C150.251 24.64 150.651 24.88 151.259 24.88C152.491 24.88 153.219 24.264 153.443 23.032L153.755 21.232ZM170.682 24.304C170.682 24.72 170.89 24.928 171.306 24.928C171.738 24.928 172.098 24.848 172.386 24.688L172.266 27.4C171.498 28.024 170.634 28.336 169.674 28.336C167.914 28.336 166.938 27.696 166.746 26.416C165.946 27.696 164.77 28.336 163.218 28.336C160.594 28.336 159.282 27.208 159.282 24.952C159.282 24.568 159.322 24.144 159.402 23.68L159.906 20.872C160.162 19.432 160.746 18.288 161.658 17.44C162.586 16.576 163.786 16.144 165.258 16.144C166.746 16.144 167.754 16.488 168.282 17.176L168.402 16.456H172.05L170.706 24.016C170.69 24.112 170.682 24.208 170.682 24.304ZM163.578 23.152C163.546 23.296 163.53 23.496 163.53 23.752C163.53 24.008 163.65 24.264 163.89 24.52C164.13 24.76 164.53 24.88 165.09 24.88C165.666 24.88 166.162 24.656 166.578 24.208L167.298 20.176C167.122 19.776 166.706 19.576 166.05 19.576C164.818 19.576 164.098 20.168 163.89 21.352L163.578 23.152ZM181.592 20.632C181.592 19.944 181.256 19.6 180.584 19.6C179.928 19.6 179.384 19.848 178.952 20.344L177.608 28H173.528L175.568 16.456H179.36L179.096 17.872C180.04 16.704 181.232 16.12 182.672 16.12C184.112 16.12 185.048 16.472 185.48 17.176C185.752 17.624 185.888 18.136 185.888 18.712C185.888 19.288 185.848 19.824 185.768 20.32L185.12 24.016C185.104 24.112 185.096 24.2 185.096 24.28C185.096 24.712 185.336 24.928 185.816 24.928C186.184 24.928 186.512 24.848 186.8 24.688L186.68 27.4C185.928 28.024 185.072 28.336 184.112 28.336C181.936 28.336 180.848 27.424 180.848 25.6C180.848 25.28 180.88 24.936 180.944 24.568L181.52 21.376C181.568 21.088 181.592 20.84 181.592 20.632ZM199.704 24.928C200.072 24.928 200.4 24.848 200.688 24.688L200.568 27.4C199.816 28.024 198.896 28.336 197.808 28.336C196.72 28.336 195.912 28.048 195.384 27.472C194.872 26.896 194.472 25.928 194.184 24.568L194.112 24.232C193.776 24.28 193.272 24.32 192.6 24.352L191.952 28H187.872L191.088 9.784H195.168L193.776 17.68C194.72 16.64 196 16.12 197.616 16.12C198.704 16.12 199.504 16.392 200.016 16.936C200.544 17.464 200.808 18.176 200.808 19.072C200.808 20.8 199.904 22.152 198.096 23.128L198.36 24.016C198.536 24.624 198.984 24.928 199.704 24.928ZM195.552 19.384C194.688 19.384 193.92 19.792 193.248 20.608L192.984 22.192C195.352 22.096 196.536 21.464 196.536 20.296C196.536 20.024 196.448 19.808 196.272 19.648C196.112 19.472 195.872 19.384 195.552 19.384Z" fill="#FEB200"/>
<path d="M90.112 47.84C90.064 48.128 90.04 48.416 90.04 48.704C90.04 49.472 90.472 49.856 91.336 49.856C92.04 49.856 92.624 49.608 93.088 49.112L94.432 41.456H98.512L96.4 53.384C96.048 55.416 95.24 57.024 93.976 58.208C92.728 59.392 91.296 59.984 89.68 59.984C88.064 59.984 86.896 59.688 86.176 59.096C85.472 58.504 85.12 57.728 85.12 56.768C85.12 55.408 85.96 54.2 87.64 53.144C86.728 52.92 86.152 52.464 85.912 51.776C85.768 51.392 85.696 50.96 85.696 50.48C85.696 50 85.736 49.512 85.816 49.016L87.16 41.456H91.24L90.112 47.84ZM90.232 56.552C91.272 56.552 91.952 55.608 92.272 53.72L92.512 52.328C90.288 53.368 89.176 54.416 89.176 55.472C89.176 55.792 89.264 56.048 89.44 56.24C89.632 56.448 89.896 56.552 90.232 56.552ZM106.392 41.12C108.12 41.12 109.424 41.496 110.304 42.248C110.992 42.84 111.336 43.664 111.336 44.72C111.336 45.072 111.296 45.456 111.216 45.872L110.712 48.68C110.408 50.376 109.696 51.576 108.576 52.28C107.472 52.984 105.992 53.336 104.136 53.336C102.28 53.336 100.92 52.984 100.056 52.28C99.4155 51.752 99.0955 50.96 99.0955 49.904C99.0955 49.536 99.1355 49.128 99.2155 48.68L99.7195 45.872C100.28 42.704 102.504 41.12 106.392 41.12ZM107.04 46.352C107.072 46.192 107.088 45.992 107.088 45.752C107.088 45.496 106.984 45.216 106.776 44.912C106.568 44.608 106.2 44.456 105.672 44.456C105.16 44.456 104.728 44.632 104.376 44.984C104.024 45.32 103.8 45.776 103.704 46.352L103.392 48.152C103.36 48.312 103.344 48.52 103.344 48.776C103.344 49.016 103.448 49.28 103.656 49.568C103.864 49.856 104.224 50 104.736 50C105.264 50 105.704 49.824 106.056 49.472C106.408 49.104 106.632 48.664 106.728 48.152L107.04 46.352ZM123.322 53.384C122.97 55.416 122.162 57.024 120.898 58.208C119.65 59.392 118.218 59.984 116.602 59.984C114.986 59.984 113.818 59.688 113.098 59.096C112.394 58.504 112.042 57.728 112.042 56.768C112.042 55.36 112.938 54.136 114.73 53.096C113.37 52.664 112.69 51.632 112.69 50C112.69 49.6 112.73 49.16 112.81 48.68L113.29 45.872C113.546 44.432 114.138 43.288 115.066 42.44C115.994 41.576 117.194 41.144 118.666 41.144C120.154 41.144 121.17 41.504 121.714 42.224L121.858 41.456H125.434L123.322 53.384ZM116.986 48.152C116.954 48.296 116.938 48.496 116.938 48.752C116.938 49.008 117.058 49.264 117.298 49.52C117.538 49.76 117.938 49.88 118.498 49.88C119.074 49.88 119.57 49.656 119.986 49.208L120.706 45.176C120.482 44.776 120.058 44.576 119.434 44.576C118.81 44.576 118.322 44.736 117.97 45.056C117.618 45.376 117.394 45.808 117.298 46.352L116.986 48.152ZM117.154 56.552C118.194 56.552 118.874 55.608 119.194 53.72L119.434 52.328C117.21 53.368 116.098 54.416 116.098 55.472C116.098 55.792 116.186 56.048 116.362 56.24C116.554 56.448 116.818 56.552 117.154 56.552ZM130.706 47.84C130.658 48.128 130.634 48.416 130.634 48.704C130.634 49.472 131.066 49.856 131.93 49.856C132.634 49.856 133.218 49.608 133.682 49.112L135.026 41.456H139.106L136.994 53.384C136.642 55.416 135.834 57.024 134.57 58.208C133.322 59.392 131.89 59.984 130.274 59.984C128.658 59.984 127.49 59.688 126.77 59.096C126.066 58.504 125.714 57.728 125.714 56.768C125.714 55.408 126.554 54.2 128.234 53.144C127.322 52.92 126.746 52.464 126.506 51.776C126.362 51.392 126.29 50.96 126.29 50.48C126.29 50 126.33 49.512 126.41 49.016L127.754 41.456H131.834L130.706 47.84ZM130.826 56.552C131.866 56.552 132.546 55.608 132.866 53.72L133.106 52.328C130.882 53.368 129.77 54.416 129.77 55.472C129.77 55.792 129.858 56.048 130.034 56.24C130.226 56.448 130.49 56.552 130.826 56.552ZM151.065 49.304C151.065 49.72 151.273 49.928 151.689 49.928C152.121 49.928 152.481 49.848 152.769 49.688L152.649 52.4C151.881 53.024 151.017 53.336 150.057 53.336C148.297 53.336 147.321 52.696 147.129 51.416C146.329 52.696 145.153 53.336 143.601 53.336C140.977 53.336 139.665 52.208 139.665 49.952C139.665 49.568 139.705 49.144 139.785 48.68L140.289 45.872C140.545 44.432 141.129 43.288 142.041 42.44C142.969 41.576 144.169 41.144 145.641 41.144C147.129 41.144 148.137 41.488 148.665 42.176L148.785 41.456H152.433L151.089 49.016C151.073 49.112 151.065 49.208 151.065 49.304ZM143.961 48.152C143.929 48.296 143.913 48.496 143.913 48.752C143.913 49.008 144.033 49.264 144.273 49.52C144.513 49.76 144.913 49.88 145.473 49.88C146.049 49.88 146.545 49.656 146.961 49.208L147.681 45.176C147.505 44.776 147.089 44.576 146.433 44.576C145.201 44.576 144.481 45.168 144.273 46.352L143.961 48.152ZM165.743 49.928C166.111 49.928 166.439 49.848 166.727 49.688L166.607 52.4C165.855 53.024 164.935 53.336 163.847 53.336C162.759 53.336 161.951 53.048 161.423 52.472C160.911 51.896 160.511 50.928 160.223 49.568L160.151 49.232C159.815 49.28 159.311 49.32 158.639 49.352L157.991 53H153.911L157.127 34.784H161.207L159.815 42.68C160.759 41.64 162.039 41.12 163.655 41.12C164.743 41.12 165.543 41.392 166.055 41.936C166.583 42.464 166.847 43.176 166.847 44.072C166.847 45.8 165.943 47.152 164.135 48.128L164.399 49.016C164.575 49.624 165.023 49.928 165.743 49.928ZM161.591 44.384C160.727 44.384 159.959 44.792 159.287 45.608L159.023 47.192C161.391 47.096 162.575 46.464 162.575 45.296C162.575 45.024 162.487 44.808 162.311 44.648C162.151 44.472 161.911 44.384 161.591 44.384ZM179.776 49.304C179.776 49.72 179.984 49.928 180.4 49.928C180.832 49.928 181.192 49.848 181.48 49.688L181.36 52.4C180.592 53.024 179.728 53.336 178.768 53.336C177.008 53.336 176.032 52.696 175.84 51.416C175.04 52.696 173.864 53.336 172.312 53.336C169.688 53.336 168.376 52.208 168.376 49.952C168.376 49.568 168.416 49.144 168.496 48.68L169 45.872C169.256 44.432 169.84 43.288 170.752 42.44C171.68 41.576 172.88 41.144 174.352 41.144C175.84 41.144 176.848 41.488 177.376 42.176L177.496 41.456H181.144L179.8 49.016C179.784 49.112 179.776 49.208 179.776 49.304ZM172.672 48.152C172.64 48.296 172.624 48.496 172.624 48.752C172.624 49.008 172.744 49.264 172.984 49.52C173.224 49.76 173.624 49.88 174.184 49.88C174.76 49.88 175.256 49.656 175.672 49.208L176.392 45.176C176.216 44.776 175.8 44.576 175.144 44.576C173.912 44.576 173.192 45.168 172.984 46.352L172.672 48.152ZM194.598 43.904C194.598 44.448 194.502 44.976 194.31 45.488C194.134 46 193.958 46.376 193.782 46.616L193.518 46.952H189.894C190.294 46.584 190.494 46.128 190.494 45.584C190.494 45.296 190.398 45.064 190.206 44.888C190.03 44.696 189.782 44.6 189.462 44.6C188.918 44.6 188.446 44.872 188.046 45.416L186.702 53H182.622L184.662 41.456H188.454L188.166 43.064C189.078 41.768 190.182 41.12 191.478 41.12C192.518 41.12 193.294 41.368 193.806 41.864C194.334 42.36 194.598 43.04 194.598 43.904ZM200.422 53.336C198.566 53.336 197.23 52.92 196.414 52.088C195.806 51.48 195.502 50.664 195.502 49.64C195.502 49.304 195.534 48.944 195.598 48.56L197.23 39.272L201.622 37.448L200.926 41.456H207.55L206.95 44.84H200.326L199.846 47.552C199.782 47.856 199.75 48.128 199.75 48.368C199.75 49.376 200.23 49.88 201.19 49.88C201.702 49.88 202.126 49.664 202.462 49.232C202.814 48.8 203.054 48.224 203.182 47.504H207.166C206.494 51.392 204.246 53.336 200.422 53.336ZM219.714 49.304C219.714 49.72 219.922 49.928 220.338 49.928C220.77 49.928 221.13 49.848 221.418 49.688L221.298 52.4C220.53 53.024 219.666 53.336 218.706 53.336C216.946 53.336 215.97 52.696 215.778 51.416C214.978 52.696 213.802 53.336 212.25 53.336C209.626 53.336 208.314 52.208 208.314 49.952C208.314 49.568 208.354 49.144 208.434 48.68L208.938 45.872C209.194 44.432 209.778 43.288 210.69 42.44C211.618 41.576 212.818 41.144 214.29 41.144C215.778 41.144 216.786 41.488 217.314 42.176L217.434 41.456H221.082L219.738 49.016C219.722 49.112 219.714 49.208 219.714 49.304ZM212.61 48.152C212.578 48.296 212.562 48.496 212.562 48.752C212.562 49.008 212.682 49.264 212.922 49.52C213.162 49.76 213.562 49.88 214.122 49.88C214.698 49.88 215.194 49.656 215.61 49.208L216.33 45.176C216.154 44.776 215.738 44.576 215.082 44.576C213.85 44.576 213.13 45.168 212.922 46.352L212.61 48.152Z" fill="#F7F6F6"/>
<mask id="mask0_477_142" style="mask-type:luminance" maskUnits="userSpaceOnUse" x="0" y="0" width="75" height="68">
<path d="M0 0H74.6927V67.8739H0V0Z" fill="white"/>
</mask>
<g mask="url(#mask0_477_142)">
<path fill-rule="evenodd" clip-rule="evenodd" d="M59.8713 15.0394C63.0041 15.0394 63.0148 42.0585 63.0148 45.7277C63.0148 50.1801 56.2524 50.1527 56.2524 55.3548C56.2524 56.6256 56.2493 57.8476 56.2478 59.0392C56.4794 62.5225 59.824 64.6131 62.2209 62.6688C64.6178 60.7245 64.4441 58.608 64.9195 55.7738C65.9693 49.5234 72.0369 42.7031 72.6571 33.7846C73.3549 23.7766 71.8708 14.2775 66.1156 8.277C58.666 0.508921 52.2373 4.55295 40.1997 1.32565C22.8853 -3.31264 2.8617 7.5395 7.74227 33.7846C9.77953 44.7419 6.45318 54.8809 14.7012 60.4197C22.6674 65.7681 25.0246 58.4114 25.0505 56.9181L25.1161 53.1133C25.1161 52.0635 24.6742 51.5271 22.0137 49.5021C12.3729 42.1591 17.1987 14.6966 27.5404 14.6966C37.8805 14.6966 42.7078 42.1591 33.067 49.5021C30.4065 51.5271 29.9631 52.0635 29.9631 53.1149C29.9845 54.3628 29.986 54.3765 30.0271 56.8587C30.0698 59.3394 30.8027 64.7716 34.9473 65.3384C35.2932 65.3856 36.7347 65.6599 37.0867 65.6934C38.4001 65.6934 39.0111 65.925 40.1997 66.242C42.1516 66.7646 43.4163 66.3745 45.8086 67.4183C48.2024 68.4636 51.5166 65.2896 51.5166 62.4524C51.5135 59.6152 51.5028 57.8659 51.5028 55.3548C51.5028 50.1527 44.7404 50.1801 44.7404 45.7277C44.7404 42.0585 44.7511 15.0394 47.8839 15.0394C48.2451 15.0394 48.8195 15.594 48.8195 16.6713V33.3503C48.8134 35.7502 48.8972 37.5848 50.4835 37.5848C52.0697 37.5848 51.9417 34.3118 51.9417 33.2878C51.9417 33.0151 52.6609 17.0934 52.6777 16.842C52.7676 15.53 52.9976 14.6966 53.8784 14.6966C54.7561 14.6966 55.1218 15.53 55.2086 16.842C55.2269 17.0934 55.8135 33.0151 55.8135 33.2878C55.8135 34.3118 55.6855 37.5848 57.2718 37.5848C58.858 37.5848 58.9403 35.7502 58.9357 33.3503V16.6713C58.9357 15.594 59.5102 15.0394 59.8713 15.0394ZM2.06326 31.8266C3.4773 31.9317 4.07918 32.0384 4.54088 30.3775C5.00105 28.7181 4.96448 25.6767 3.44835 25.6874C1.93526 25.6996 -0.199511 26.8667 0.330754 29.6034C0.640075 31.1912 0.649218 31.7229 2.06326 31.8266ZM4.79687 45.775C5.95796 45.5174 6.04939 42.025 5.91682 40.3245C5.78273 38.624 5.65931 32.7682 2.82666 34.004C-0.00447096 35.2398 0.227139 36.7391 1.47814 39.2137C2.20344 40.6475 3.63729 46.0325 4.79687 45.775ZM73.5393 47.4816C72.4498 47.0062 71.2476 47.928 70.3547 49.3802C69.4602 50.8323 66.1095 55.6367 69.1265 56.3071C72.1436 56.9776 74.0147 54.9662 74.4612 52.2296C74.7202 50.6418 74.6288 47.9554 73.5393 47.4816Z" fill="#FEB200"/>
</g>
</svg>
