<svg width="225" height="204" viewBox="0 0 225 204" fill="none" xmlns="http://www.w3.org/2000/svg">
<mask id="mask0_267_997" style="mask-type:luminance" maskUnits="userSpaceOnUse" x="0" y="0" width="225" height="204">
<path d="M0 0H224.207V203.874H0V0Z" fill="white"/>
</mask>
<g mask="url(#mask0_267_997)">
<path fill-rule="evenodd" clip-rule="evenodd" d="M179.718 45.174C189.122 45.174 189.154 126.332 189.154 137.353C189.154 150.727 168.855 150.644 168.855 166.27C168.855 170.087 168.846 173.758 168.841 177.337C169.536 187.8 179.576 194.079 186.771 188.239C193.966 182.399 193.444 176.042 194.871 167.529C198.023 148.754 216.236 128.268 218.097 101.479C220.192 71.418 215.737 42.8855 198.462 24.8617C176.1 1.52858 156.803 13.6757 120.669 3.9818C68.696 -9.95032 8.59061 22.6464 23.2408 101.479C29.356 134.392 19.3713 164.847 44.1297 181.484C68.042 197.549 75.1178 175.451 75.1955 170.966L75.3922 159.537C75.3922 156.384 74.0658 154.773 66.0798 148.69C37.1408 126.634 51.6263 44.1442 82.6693 44.1442C113.708 44.1442 128.198 126.634 99.2587 148.69C91.2727 154.773 89.9417 156.384 89.9417 159.542C90.0058 163.29 90.0104 163.332 90.1338 170.787C90.2619 178.239 92.462 194.555 104.903 196.258C105.941 196.4 110.268 197.224 111.325 197.324C115.267 197.324 117.101 198.02 120.669 198.972C126.528 200.542 130.325 199.37 137.506 202.505C144.691 205.645 154.639 196.111 154.639 187.589C154.63 179.067 154.598 173.813 154.598 166.27C154.598 150.644 134.299 150.727 134.299 137.353C134.299 126.332 134.331 45.174 143.735 45.174C144.819 45.174 146.544 46.84 146.544 50.0759V100.175C146.525 107.383 146.777 112.894 151.538 112.894C156.3 112.894 155.915 103.063 155.915 99.9871C155.915 99.1678 158.074 51.3437 158.125 50.5885C158.395 46.6478 159.085 44.1442 161.729 44.1442C164.363 44.1442 165.461 46.6478 165.722 50.5885C165.777 51.3437 167.538 99.1678 167.538 99.9871C167.538 103.063 167.154 112.894 171.915 112.894C176.676 112.894 176.923 107.383 176.91 100.175V50.0759C176.91 46.84 178.634 45.174 179.718 45.174ZM6.19389 95.5978C10.4385 95.9136 12.2451 96.234 13.631 91.2452C15.0123 86.2609 14.9026 77.1254 10.3516 77.1575C5.80968 77.1941 -0.59833 80.7 0.993382 88.9201C1.92188 93.6893 1.94932 95.2866 6.19389 95.5978ZM14.3994 137.495C17.8847 136.721 18.1592 126.231 17.7612 121.123C17.3587 116.015 16.9883 98.4264 8.48541 102.138C-0.0128732 105.85 0.682358 110.354 4.43752 117.787C6.61469 122.094 10.9187 138.268 14.3994 137.495ZM220.746 142.621C217.475 141.193 213.867 143.962 211.186 148.324C208.501 152.686 198.443 167.117 207.5 169.131C216.556 171.144 222.173 165.103 223.513 156.883C224.29 152.114 224.016 144.044 220.746 142.621Z" fill="#1B2426"/>
</g>
</svg>
