<svg width="783" height="256" viewBox="0 0 783 256" fill="none" xmlns="http://www.w3.org/2000/svg">
<g clip-path="url(#clip0_635_1879)">
<path d="M356.646 98.404C356.646 105.996 354.696 112.21 350.796 117.046C346.948 121.934 341.696 124.378 335.04 124.378C328.436 124.378 324.042 122.74 321.858 119.464C320.506 117.384 319.83 114.836 319.83 111.82C319.83 108.856 320.09 105.892 320.61 102.928L330.594 46.456H343.854L341.514 59.482H360.936L358.986 70.48H343.698C347.39 73.444 350.458 77.292 352.902 82.024C355.398 86.756 356.646 92.216 356.646 98.404ZM337.068 113.224C338.68 113.224 340.058 111.924 341.202 109.324C342.346 106.724 342.918 103.292 342.918 99.028C342.918 94.816 342.476 90.552 341.592 86.236C340.76 81.92 339.746 78.54 338.55 76.096L333.87 102.85C333.558 104.67 333.402 106.256 333.402 107.608C333.402 111.352 334.624 113.224 337.068 113.224ZM386.485 58.39C392.101 58.39 396.339 59.612 399.199 62.056C401.435 63.98 402.553 66.658 402.553 70.09C402.553 71.234 402.423 72.482 402.163 73.834L400.525 82.96C399.537 88.472 397.223 92.372 393.583 94.66C389.995 96.948 385.185 98.092 379.153 98.092C373.121 98.092 368.701 96.948 365.893 94.66C363.813 92.944 362.773 90.37 362.773 86.938C362.773 85.742 362.903 84.416 363.163 82.96L364.801 73.834C366.621 63.538 373.849 58.39 386.485 58.39ZM388.591 75.394C388.695 74.874 388.747 74.224 388.747 73.444C388.747 72.612 388.409 71.702 387.733 70.714C387.057 69.726 385.861 69.232 384.145 69.232C382.481 69.232 381.077 69.804 379.933 70.948C378.789 72.04 378.061 73.522 377.749 75.394L376.735 81.244C376.631 81.764 376.579 82.44 376.579 83.272C376.579 84.052 376.917 84.91 377.593 85.846C378.269 86.782 379.439 87.25 381.103 87.25C382.819 87.25 384.249 86.678 385.393 85.534C386.537 84.338 387.265 82.908 387.577 81.244L388.591 75.394ZM430.513 58.39C436.129 58.39 440.367 59.612 443.227 62.056C445.463 63.98 446.581 66.658 446.581 70.09C446.581 71.234 446.451 72.482 446.191 73.834L444.553 82.96C443.565 88.472 441.251 92.372 437.611 94.66C434.023 96.948 429.213 98.092 423.181 98.092C417.149 98.092 412.729 96.948 409.921 94.66C407.841 92.944 406.801 90.37 406.801 86.938C406.801 85.742 406.931 84.416 407.191 82.96L408.829 73.834C410.649 63.538 417.877 58.39 430.513 58.39ZM432.619 75.394C432.723 74.874 432.775 74.224 432.775 73.444C432.775 72.612 432.437 71.702 431.761 70.714C431.085 69.726 429.889 69.232 428.173 69.232C426.509 69.232 425.105 69.804 423.961 70.948C422.817 72.04 422.089 73.522 421.777 75.394L420.763 81.244C420.659 81.764 420.607 82.44 420.607 83.272C420.607 84.052 420.945 84.91 421.621 85.846C422.297 86.782 423.467 87.25 425.131 87.25C426.847 87.25 428.277 86.678 429.421 85.534C430.565 84.338 431.293 82.908 431.605 81.244L432.619 75.394ZM487.8 84.988C487.8 86.34 488.476 87.016 489.828 87.016C491.232 87.016 492.402 86.756 493.338 86.236L492.948 95.05C490.452 97.078 487.644 98.092 484.524 98.092C478.804 98.092 475.632 96.012 475.008 91.852C472.408 96.012 468.586 98.092 463.542 98.092C455.014 98.092 450.75 94.426 450.75 87.094C450.75 85.846 450.88 84.468 451.14 82.96L452.778 73.834C453.61 69.154 455.508 65.436 458.472 62.68C461.488 59.872 465.648 58.468 470.952 58.468C474.228 58.468 476.828 59.17 478.752 60.574L482.73 37.798H496.068L487.878 84.052C487.826 84.364 487.8 84.676 487.8 84.988ZM464.712 81.244C464.608 81.712 464.556 82.362 464.556 83.194C464.556 84.026 464.946 84.858 465.726 85.69C466.506 86.47 467.806 86.86 469.626 86.86C471.498 86.86 473.11 86.132 474.462 84.676L476.802 71.572C476.23 70.272 474.878 69.622 472.746 69.622C468.742 69.622 466.402 71.546 465.726 75.394L464.712 81.244ZM545.156 58.39C550.304 58.39 553.918 59.82 555.998 62.68C557.558 64.708 558.338 67.178 558.338 70.09C558.338 71.286 558.208 72.534 557.948 73.834L556.388 82.57C555.504 87.562 553.19 91.41 549.446 94.114C545.754 96.766 541.074 98.092 535.406 98.092C529.79 98.092 525.474 96.974 522.458 94.738C520.066 92.97 518.87 90.5 518.87 87.328C518.87 86.496 518.948 85.638 519.104 84.754L527.372 37.798H540.632L536.654 60.496C538.838 59.092 541.672 58.39 545.156 58.39ZM544.454 75.004C544.506 74.588 544.532 74.016 544.532 73.288C544.532 72.508 544.194 71.702 543.518 70.87C542.894 69.986 541.49 69.544 539.306 69.544C537.174 69.544 535.64 70.194 534.704 71.494L532.442 84.52C533.066 86.08 534.366 86.86 536.342 86.86C540.346 86.86 542.712 84.858 543.44 80.854L544.454 75.004ZM599.468 84.988C599.468 86.34 600.144 87.016 601.496 87.016C602.9 87.016 604.07 86.756 605.006 86.236L604.616 95.05C602.12 97.078 599.312 98.092 596.192 98.092C590.472 98.092 587.3 96.012 586.676 91.852C584.076 96.012 580.254 98.092 575.21 98.092C566.682 98.092 562.418 94.426 562.418 87.094C562.418 85.846 562.548 84.468 562.808 82.96L564.446 73.834C565.278 69.154 567.176 65.436 570.14 62.68C573.156 59.872 577.056 58.468 581.84 58.468C586.676 58.468 589.952 59.586 591.668 61.822L592.058 59.482H603.914L599.546 84.052C599.494 84.364 599.468 84.676 599.468 84.988ZM576.38 81.244C576.276 81.712 576.224 82.362 576.224 83.194C576.224 84.026 576.614 84.858 577.394 85.69C578.174 86.47 579.474 86.86 581.294 86.86C583.166 86.86 584.778 86.132 586.13 84.676L588.47 71.572C587.898 70.272 586.546 69.622 584.414 69.622C580.41 69.622 578.07 71.546 577.394 75.394L576.38 81.244ZM634.924 73.054C634.924 70.818 633.832 69.7 631.648 69.7C629.516 69.7 627.748 70.506 626.344 72.118L621.976 97H608.716L615.346 59.482H627.67L626.812 64.084C629.88 60.288 633.754 58.39 638.434 58.39C643.114 58.39 646.156 59.534 647.56 61.822C648.444 63.278 648.886 64.942 648.886 66.814C648.886 68.686 648.756 70.428 648.496 72.04L646.39 84.052C646.338 84.364 646.312 84.65 646.312 84.91C646.312 86.314 647.092 87.016 648.652 87.016C649.848 87.016 650.914 86.756 651.85 86.236L651.46 95.05C649.016 97.078 646.234 98.092 643.114 98.092C636.042 98.092 632.506 95.128 632.506 89.2C632.506 88.16 632.61 87.042 632.818 85.846L634.69 75.472C634.846 74.536 634.924 73.73 634.924 73.054ZM693.787 87.016C694.983 87.016 696.049 86.756 696.985 86.236L696.595 95.05C694.151 97.078 691.161 98.092 687.625 98.092C684.089 98.092 681.463 97.156 679.747 95.284C678.083 93.412 676.783 90.266 675.847 85.846L675.613 84.754C674.521 84.91 672.883 85.04 670.699 85.144L668.593 97H655.333L665.785 37.798H679.045L674.521 63.46C677.589 60.08 681.749 58.39 687.001 58.39C690.537 58.39 693.137 59.274 694.801 61.042C696.517 62.758 697.375 65.072 697.375 67.984C697.375 73.6 694.437 77.994 688.561 81.166L689.419 84.052C689.991 86.028 691.447 87.016 693.787 87.016ZM680.293 68.998C677.485 68.998 674.989 70.324 672.805 72.976L671.947 78.124C679.643 77.812 683.491 75.758 683.491 71.962C683.491 71.078 683.205 70.376 682.633 69.856C682.113 69.284 681.333 68.998 680.293 68.998Z" fill="#1B2426"/>
<path d="M338.035 175.198C337.879 176.134 337.801 177.07 337.801 178.006C337.801 180.502 339.205 181.75 342.013 181.75C344.301 181.75 346.199 180.944 347.707 179.332L352.075 154.45H365.335L358.471 193.216C357.327 199.82 354.701 205.046 350.593 208.894C346.537 212.742 341.883 214.666 336.631 214.666C331.379 214.666 327.583 213.704 325.243 211.78C322.955 209.856 321.811 207.334 321.811 204.214C321.811 199.794 324.541 195.868 330.001 192.436C327.037 191.708 325.165 190.226 324.385 187.99C323.917 186.742 323.683 185.338 323.683 183.778C323.683 182.218 323.813 180.632 324.073 179.02L328.441 154.45H341.701L338.035 175.198ZM338.425 203.512C341.805 203.512 344.015 200.444 345.055 194.308L345.835 189.784C338.607 193.164 334.993 196.57 334.993 200.002C334.993 201.042 335.279 201.874 335.851 202.498C336.475 203.174 337.333 203.512 338.425 203.512ZM390.944 153.358C396.56 153.358 400.798 154.58 403.658 157.024C405.894 158.948 407.012 161.626 407.012 165.058C407.012 166.202 406.882 167.45 406.622 168.802L404.984 177.928C403.996 183.44 401.682 187.34 398.042 189.628C394.454 191.916 389.644 193.06 383.612 193.06C377.58 193.06 373.16 191.916 370.352 189.628C368.272 187.912 367.232 185.338 367.232 181.906C367.232 180.71 367.362 179.384 367.622 177.928L369.26 168.802C371.08 158.506 378.308 153.358 390.944 153.358ZM393.05 170.362C393.154 169.842 393.206 169.192 393.206 168.412C393.206 167.58 392.868 166.67 392.192 165.682C391.516 164.694 390.32 164.2 388.604 164.2C386.94 164.2 385.536 164.772 384.392 165.916C383.248 167.008 382.52 168.49 382.208 170.362L381.194 176.212C381.09 176.732 381.038 177.408 381.038 178.24C381.038 179.02 381.376 179.878 382.052 180.814C382.728 181.75 383.898 182.218 385.562 182.218C387.278 182.218 388.708 181.646 389.852 180.502C390.996 179.306 391.724 177.876 392.036 176.212L393.05 170.362ZM445.969 193.216C444.825 199.82 442.199 205.046 438.091 208.894C434.035 212.742 429.381 214.666 424.129 214.666C418.877 214.666 415.081 213.704 412.741 211.78C410.453 209.856 409.309 207.334 409.309 204.214C409.309 199.638 412.221 195.66 418.045 192.28C413.625 190.876 411.415 187.522 411.415 182.218C411.415 180.918 411.545 179.488 411.805 177.928L413.365 168.802C414.197 164.122 416.121 160.404 419.137 157.648C422.153 154.84 426.053 153.436 430.837 153.436C435.673 153.436 438.975 154.606 440.743 156.946L441.211 154.45H452.833L445.969 193.216ZM425.377 176.212C425.273 176.68 425.221 177.33 425.221 178.162C425.221 178.994 425.611 179.826 426.391 180.658C427.171 181.438 428.471 181.828 430.291 181.828C432.163 181.828 433.775 181.1 435.127 179.644L437.467 166.54C436.739 165.24 435.361 164.59 433.333 164.59C431.305 164.59 429.719 165.11 428.575 166.15C427.431 167.19 426.703 168.594 426.391 170.362L425.377 176.212ZM425.923 203.512C429.303 203.512 431.513 200.444 432.553 194.308L433.333 189.784C426.105 193.164 422.491 196.57 422.491 200.002C422.491 201.042 422.777 201.874 423.349 202.498C423.973 203.174 424.831 203.512 425.923 203.512ZM469.965 175.198C469.809 176.134 469.731 177.07 469.731 178.006C469.731 180.502 471.135 181.75 473.943 181.75C476.231 181.75 478.129 180.944 479.637 179.332L484.005 154.45H497.265L490.401 193.216C489.257 199.82 486.631 205.046 482.523 208.894C478.467 212.742 473.813 214.666 468.561 214.666C463.309 214.666 459.513 213.704 457.173 211.78C454.885 209.856 453.741 207.334 453.741 204.214C453.741 199.794 456.471 195.868 461.931 192.436C458.967 191.708 457.095 190.226 456.315 187.99C455.847 186.742 455.613 185.338 455.613 183.778C455.613 182.218 455.743 180.632 456.003 179.02L460.371 154.45H473.631L469.965 175.198ZM470.355 203.512C473.735 203.512 475.945 200.444 476.985 194.308L477.765 189.784C470.537 193.164 466.923 196.57 466.923 200.002C466.923 201.042 467.209 201.874 467.781 202.498C468.405 203.174 469.263 203.512 470.355 203.512ZM536.133 179.956C536.133 181.308 536.809 181.984 538.161 181.984C539.565 181.984 540.735 181.724 541.671 181.204L541.281 190.018C538.785 192.046 535.977 193.06 532.857 193.06C527.137 193.06 523.965 190.98 523.341 186.82C520.741 190.98 516.919 193.06 511.875 193.06C503.347 193.06 499.083 189.394 499.083 182.062C499.083 180.814 499.213 179.436 499.473 177.928L501.111 168.802C501.943 164.122 503.841 160.404 506.805 157.648C509.821 154.84 513.721 153.436 518.505 153.436C523.341 153.436 526.617 154.554 528.333 156.79L528.723 154.45H540.579L536.211 179.02C536.159 179.332 536.133 179.644 536.133 179.956ZM513.045 176.212C512.941 176.68 512.889 177.33 512.889 178.162C512.889 178.994 513.279 179.826 514.059 180.658C514.839 181.438 516.139 181.828 517.959 181.828C519.831 181.828 521.443 181.1 522.795 179.644L525.135 166.54C524.563 165.24 523.211 164.59 521.079 164.59C517.075 164.59 514.735 166.514 514.059 170.362L513.045 176.212ZM583.835 181.984C585.031 181.984 586.097 181.724 587.033 181.204L586.643 190.018C584.199 192.046 581.209 193.06 577.673 193.06C574.137 193.06 571.511 192.124 569.795 190.252C568.131 188.38 566.831 185.234 565.895 180.814L565.661 179.722C564.569 179.878 562.931 180.008 560.747 180.112L558.641 191.968H545.381L555.833 132.766H569.093L564.569 158.428C567.637 155.048 571.797 153.358 577.049 153.358C580.585 153.358 583.185 154.242 584.849 156.01C586.565 157.726 587.423 160.04 587.423 162.952C587.423 168.568 584.485 172.962 578.609 176.134L579.467 179.02C580.039 180.996 581.495 181.984 583.835 181.984ZM570.341 163.966C567.533 163.966 565.037 165.292 562.853 167.944L561.995 173.092C569.691 172.78 573.539 170.726 573.539 166.93C573.539 166.046 573.253 165.344 572.681 164.824C572.161 164.252 571.381 163.966 570.341 163.966ZM629.444 179.956C629.444 181.308 630.12 181.984 631.472 181.984C632.876 181.984 634.046 181.724 634.982 181.204L634.592 190.018C632.096 192.046 629.288 193.06 626.168 193.06C620.448 193.06 617.276 190.98 616.652 186.82C614.052 190.98 610.23 193.06 605.186 193.06C596.658 193.06 592.394 189.394 592.394 182.062C592.394 180.814 592.524 179.436 592.784 177.928L594.422 168.802C595.254 164.122 597.152 160.404 600.116 157.648C603.132 154.84 607.032 153.436 611.816 153.436C616.652 153.436 619.928 154.554 621.644 156.79L622.034 154.45H633.89L629.522 179.02C629.47 179.332 629.444 179.644 629.444 179.956ZM606.356 176.212C606.252 176.68 606.2 177.33 606.2 178.162C606.2 178.994 606.59 179.826 607.37 180.658C608.15 181.438 609.45 181.828 611.27 181.828C613.142 181.828 614.754 181.1 616.106 179.644L618.446 166.54C617.874 165.24 616.522 164.59 614.39 164.59C610.386 164.59 608.046 166.514 607.37 170.362L606.356 176.212ZM677.614 162.406C677.614 164.174 677.302 165.89 676.678 167.554C676.106 169.218 675.534 170.44 674.962 171.22L674.104 172.312H662.326C663.626 171.116 664.276 169.634 664.276 167.866C664.276 166.93 663.964 166.176 663.34 165.604C662.768 164.98 661.962 164.668 660.922 164.668C659.154 164.668 657.62 165.552 656.32 167.32L651.952 191.968H638.692L645.322 154.45H657.646L656.71 159.676C659.674 155.464 663.262 153.358 667.474 153.358C670.854 153.358 673.376 154.164 675.04 155.776C676.756 157.388 677.614 159.598 677.614 162.406ZM696.542 193.06C690.51 193.06 686.168 191.708 683.516 189.004C681.54 187.028 680.552 184.376 680.552 181.048C680.552 179.956 680.656 178.786 680.864 177.538L686.168 147.352L700.442 141.424L698.18 154.45H719.708L717.758 165.448H696.23L694.67 174.262C694.462 175.25 694.358 176.134 694.358 176.914C694.358 180.19 695.918 181.828 699.038 181.828C700.702 181.828 702.08 181.126 703.172 179.722C704.316 178.318 705.096 176.446 705.512 174.106H718.46C716.276 186.742 708.97 193.06 696.542 193.06ZM759.241 179.956C759.241 181.308 759.917 181.984 761.269 181.984C762.673 181.984 763.843 181.724 764.779 181.204L764.389 190.018C761.893 192.046 759.085 193.06 755.965 193.06C750.245 193.06 747.073 190.98 746.449 186.82C743.849 190.98 740.027 193.06 734.983 193.06C726.455 193.06 722.191 189.394 722.191 182.062C722.191 180.814 722.321 179.436 722.581 177.928L724.219 168.802C725.051 164.122 726.949 160.404 729.913 157.648C732.929 154.84 736.829 153.436 741.613 153.436C746.449 153.436 749.725 154.554 751.441 156.79L751.831 154.45H763.687L759.319 179.02C759.267 179.332 759.241 179.644 759.241 179.956ZM736.153 176.212C736.049 176.68 735.997 177.33 735.997 178.162C735.997 178.994 736.387 179.826 737.167 180.658C737.947 181.438 739.247 181.828 741.067 181.828C742.939 181.828 744.551 181.1 745.903 179.644L748.243 166.54C747.671 165.24 746.319 164.59 744.187 164.59C740.183 164.59 737.843 166.514 737.167 170.362L736.153 176.212Z" fill="#F7F6F6"/>
<path d="M356.646 98.404C356.646 105.996 354.696 112.21 350.796 117.046C346.948 121.934 341.696 124.378 335.04 124.378C328.436 124.378 324.042 122.74 321.858 119.464C320.506 117.384 319.83 114.836 319.83 111.82C319.83 108.856 320.09 105.892 320.61 102.928L330.594 46.456H343.854L341.514 59.482H360.936L358.986 70.48H343.698C347.39 73.444 350.458 77.292 352.902 82.024C355.398 86.756 356.646 92.216 356.646 98.404ZM337.068 113.224C338.68 113.224 340.058 111.924 341.202 109.324C342.346 106.724 342.918 103.292 342.918 99.028C342.918 94.816 342.476 90.552 341.592 86.236C340.76 81.92 339.746 78.54 338.55 76.096L333.87 102.85C333.558 104.67 333.402 106.256 333.402 107.608C333.402 111.352 334.624 113.224 337.068 113.224ZM386.485 58.39C392.101 58.39 396.339 59.612 399.199 62.056C401.435 63.98 402.553 66.658 402.553 70.09C402.553 71.234 402.423 72.482 402.163 73.834L400.525 82.96C399.537 88.472 397.223 92.372 393.583 94.66C389.995 96.948 385.185 98.092 379.153 98.092C373.121 98.092 368.701 96.948 365.893 94.66C363.813 92.944 362.773 90.37 362.773 86.938C362.773 85.742 362.903 84.416 363.163 82.96L364.801 73.834C366.621 63.538 373.849 58.39 386.485 58.39ZM388.591 75.394C388.695 74.874 388.747 74.224 388.747 73.444C388.747 72.612 388.409 71.702 387.733 70.714C387.057 69.726 385.861 69.232 384.145 69.232C382.481 69.232 381.077 69.804 379.933 70.948C378.789 72.04 378.061 73.522 377.749 75.394L376.735 81.244C376.631 81.764 376.579 82.44 376.579 83.272C376.579 84.052 376.917 84.91 377.593 85.846C378.269 86.782 379.439 87.25 381.103 87.25C382.819 87.25 384.249 86.678 385.393 85.534C386.537 84.338 387.265 82.908 387.577 81.244L388.591 75.394ZM430.513 58.39C436.129 58.39 440.367 59.612 443.227 62.056C445.463 63.98 446.581 66.658 446.581 70.09C446.581 71.234 446.451 72.482 446.191 73.834L444.553 82.96C443.565 88.472 441.251 92.372 437.611 94.66C434.023 96.948 429.213 98.092 423.181 98.092C417.149 98.092 412.729 96.948 409.921 94.66C407.841 92.944 406.801 90.37 406.801 86.938C406.801 85.742 406.931 84.416 407.191 82.96L408.829 73.834C410.649 63.538 417.877 58.39 430.513 58.39ZM432.619 75.394C432.723 74.874 432.775 74.224 432.775 73.444C432.775 72.612 432.437 71.702 431.761 70.714C431.085 69.726 429.889 69.232 428.173 69.232C426.509 69.232 425.105 69.804 423.961 70.948C422.817 72.04 422.089 73.522 421.777 75.394L420.763 81.244C420.659 81.764 420.607 82.44 420.607 83.272C420.607 84.052 420.945 84.91 421.621 85.846C422.297 86.782 423.467 87.25 425.131 87.25C426.847 87.25 428.277 86.678 429.421 85.534C430.565 84.338 431.293 82.908 431.605 81.244L432.619 75.394ZM487.8 84.988C487.8 86.34 488.476 87.016 489.828 87.016C491.232 87.016 492.402 86.756 493.338 86.236L492.948 95.05C490.452 97.078 487.644 98.092 484.524 98.092C478.804 98.092 475.632 96.012 475.008 91.852C472.408 96.012 468.586 98.092 463.542 98.092C455.014 98.092 450.75 94.426 450.75 87.094C450.75 85.846 450.88 84.468 451.14 82.96L452.778 73.834C453.61 69.154 455.508 65.436 458.472 62.68C461.488 59.872 465.648 58.468 470.952 58.468C474.228 58.468 476.828 59.17 478.752 60.574L482.73 37.798H496.068L487.878 84.052C487.826 84.364 487.8 84.676 487.8 84.988ZM464.712 81.244C464.608 81.712 464.556 82.362 464.556 83.194C464.556 84.026 464.946 84.858 465.726 85.69C466.506 86.47 467.806 86.86 469.626 86.86C471.498 86.86 473.11 86.132 474.462 84.676L476.802 71.572C476.23 70.272 474.878 69.622 472.746 69.622C468.742 69.622 466.402 71.546 465.726 75.394L464.712 81.244ZM545.156 58.39C550.304 58.39 553.918 59.82 555.998 62.68C557.558 64.708 558.338 67.178 558.338 70.09C558.338 71.286 558.208 72.534 557.948 73.834L556.388 82.57C555.504 87.562 553.19 91.41 549.446 94.114C545.754 96.766 541.074 98.092 535.406 98.092C529.79 98.092 525.474 96.974 522.458 94.738C520.066 92.97 518.87 90.5 518.87 87.328C518.87 86.496 518.948 85.638 519.104 84.754L527.372 37.798H540.632L536.654 60.496C538.838 59.092 541.672 58.39 545.156 58.39ZM544.454 75.004C544.506 74.588 544.532 74.016 544.532 73.288C544.532 72.508 544.194 71.702 543.518 70.87C542.894 69.986 541.49 69.544 539.306 69.544C537.174 69.544 535.64 70.194 534.704 71.494L532.442 84.52C533.066 86.08 534.366 86.86 536.342 86.86C540.346 86.86 542.712 84.858 543.44 80.854L544.454 75.004ZM599.468 84.988C599.468 86.34 600.144 87.016 601.496 87.016C602.9 87.016 604.07 86.756 605.006 86.236L604.616 95.05C602.12 97.078 599.312 98.092 596.192 98.092C590.472 98.092 587.3 96.012 586.676 91.852C584.076 96.012 580.254 98.092 575.21 98.092C566.682 98.092 562.418 94.426 562.418 87.094C562.418 85.846 562.548 84.468 562.808 82.96L564.446 73.834C565.278 69.154 567.176 65.436 570.14 62.68C573.156 59.872 577.056 58.468 581.84 58.468C586.676 58.468 589.952 59.586 591.668 61.822L592.058 59.482H603.914L599.546 84.052C599.494 84.364 599.468 84.676 599.468 84.988ZM576.38 81.244C576.276 81.712 576.224 82.362 576.224 83.194C576.224 84.026 576.614 84.858 577.394 85.69C578.174 86.47 579.474 86.86 581.294 86.86C583.166 86.86 584.778 86.132 586.13 84.676L588.47 71.572C587.898 70.272 586.546 69.622 584.414 69.622C580.41 69.622 578.07 71.546 577.394 75.394L576.38 81.244ZM634.924 73.054C634.924 70.818 633.832 69.7 631.648 69.7C629.516 69.7 627.748 70.506 626.344 72.118L621.976 97H608.716L615.346 59.482H627.67L626.812 64.084C629.88 60.288 633.754 58.39 638.434 58.39C643.114 58.39 646.156 59.534 647.56 61.822C648.444 63.278 648.886 64.942 648.886 66.814C648.886 68.686 648.756 70.428 648.496 72.04L646.39 84.052C646.338 84.364 646.312 84.65 646.312 84.91C646.312 86.314 647.092 87.016 648.652 87.016C649.848 87.016 650.914 86.756 651.85 86.236L651.46 95.05C649.016 97.078 646.234 98.092 643.114 98.092C636.042 98.092 632.506 95.128 632.506 89.2C632.506 88.16 632.61 87.042 632.818 85.846L634.69 75.472C634.846 74.536 634.924 73.73 634.924 73.054ZM693.787 87.016C694.983 87.016 696.049 86.756 696.985 86.236L696.595 95.05C694.151 97.078 691.161 98.092 687.625 98.092C684.089 98.092 681.463 97.156 679.747 95.284C678.083 93.412 676.783 90.266 675.847 85.846L675.613 84.754C674.521 84.91 672.883 85.04 670.699 85.144L668.593 97H655.333L665.785 37.798H679.045L674.521 63.46C677.589 60.08 681.749 58.39 687.001 58.39C690.537 58.39 693.137 59.274 694.801 61.042C696.517 62.758 697.375 65.072 697.375 67.984C697.375 73.6 694.437 77.994 688.561 81.166L689.419 84.052C689.991 86.028 691.447 87.016 693.787 87.016ZM680.293 68.998C677.485 68.998 674.989 70.324 672.805 72.976L671.947 78.124C679.643 77.812 683.491 75.758 683.491 71.962C683.491 71.078 683.205 70.376 682.633 69.856C682.113 69.284 681.333 68.998 680.293 68.998Z" fill="#FEB200"/>
<path d="M338.035 175.198C337.879 176.134 337.801 177.07 337.801 178.006C337.801 180.502 339.205 181.75 342.013 181.75C344.301 181.75 346.199 180.944 347.707 179.332L352.075 154.45H365.335L358.471 193.216C357.327 199.82 354.701 205.046 350.593 208.894C346.537 212.742 341.883 214.666 336.631 214.666C331.379 214.666 327.583 213.704 325.243 211.78C322.955 209.856 321.811 207.334 321.811 204.214C321.811 199.794 324.541 195.868 330.001 192.436C327.037 191.708 325.165 190.226 324.385 187.99C323.917 186.742 323.683 185.338 323.683 183.778C323.683 182.218 323.813 180.632 324.073 179.02L328.441 154.45H341.701L338.035 175.198ZM338.425 203.512C341.805 203.512 344.015 200.444 345.055 194.308L345.835 189.784C338.607 193.164 334.993 196.57 334.993 200.002C334.993 201.042 335.279 201.874 335.851 202.498C336.475 203.174 337.333 203.512 338.425 203.512ZM390.944 153.358C396.56 153.358 400.798 154.58 403.658 157.024C405.894 158.948 407.012 161.626 407.012 165.058C407.012 166.202 406.882 167.45 406.622 168.802L404.984 177.928C403.996 183.44 401.682 187.34 398.042 189.628C394.454 191.916 389.644 193.06 383.612 193.06C377.58 193.06 373.16 191.916 370.352 189.628C368.272 187.912 367.232 185.338 367.232 181.906C367.232 180.71 367.362 179.384 367.622 177.928L369.26 168.802C371.08 158.506 378.308 153.358 390.944 153.358ZM393.05 170.362C393.154 169.842 393.206 169.192 393.206 168.412C393.206 167.58 392.868 166.67 392.192 165.682C391.516 164.694 390.32 164.2 388.604 164.2C386.94 164.2 385.536 164.772 384.392 165.916C383.248 167.008 382.52 168.49 382.208 170.362L381.194 176.212C381.09 176.732 381.038 177.408 381.038 178.24C381.038 179.02 381.376 179.878 382.052 180.814C382.728 181.75 383.898 182.218 385.562 182.218C387.278 182.218 388.708 181.646 389.852 180.502C390.996 179.306 391.724 177.876 392.036 176.212L393.05 170.362ZM445.969 193.216C444.825 199.82 442.199 205.046 438.091 208.894C434.035 212.742 429.381 214.666 424.129 214.666C418.877 214.666 415.081 213.704 412.741 211.78C410.453 209.856 409.309 207.334 409.309 204.214C409.309 199.638 412.221 195.66 418.045 192.28C413.625 190.876 411.415 187.522 411.415 182.218C411.415 180.918 411.545 179.488 411.805 177.928L413.365 168.802C414.197 164.122 416.121 160.404 419.137 157.648C422.153 154.84 426.053 153.436 430.837 153.436C435.673 153.436 438.975 154.606 440.743 156.946L441.211 154.45H452.833L445.969 193.216ZM425.377 176.212C425.273 176.68 425.221 177.33 425.221 178.162C425.221 178.994 425.611 179.826 426.391 180.658C427.171 181.438 428.471 181.828 430.291 181.828C432.163 181.828 433.775 181.1 435.127 179.644L437.467 166.54C436.739 165.24 435.361 164.59 433.333 164.59C431.305 164.59 429.719 165.11 428.575 166.15C427.431 167.19 426.703 168.594 426.391 170.362L425.377 176.212ZM425.923 203.512C429.303 203.512 431.513 200.444 432.553 194.308L433.333 189.784C426.105 193.164 422.491 196.57 422.491 200.002C422.491 201.042 422.777 201.874 423.349 202.498C423.973 203.174 424.831 203.512 425.923 203.512ZM469.965 175.198C469.809 176.134 469.731 177.07 469.731 178.006C469.731 180.502 471.135 181.75 473.943 181.75C476.231 181.75 478.129 180.944 479.637 179.332L484.005 154.45H497.265L490.401 193.216C489.257 199.82 486.631 205.046 482.523 208.894C478.467 212.742 473.813 214.666 468.561 214.666C463.309 214.666 459.513 213.704 457.173 211.78C454.885 209.856 453.741 207.334 453.741 204.214C453.741 199.794 456.471 195.868 461.931 192.436C458.967 191.708 457.095 190.226 456.315 187.99C455.847 186.742 455.613 185.338 455.613 183.778C455.613 182.218 455.743 180.632 456.003 179.02L460.371 154.45H473.631L469.965 175.198ZM470.355 203.512C473.735 203.512 475.945 200.444 476.985 194.308L477.765 189.784C470.537 193.164 466.923 196.57 466.923 200.002C466.923 201.042 467.209 201.874 467.781 202.498C468.405 203.174 469.263 203.512 470.355 203.512ZM536.133 179.956C536.133 181.308 536.809 181.984 538.161 181.984C539.565 181.984 540.735 181.724 541.671 181.204L541.281 190.018C538.785 192.046 535.977 193.06 532.857 193.06C527.137 193.06 523.965 190.98 523.341 186.82C520.741 190.98 516.919 193.06 511.875 193.06C503.347 193.06 499.083 189.394 499.083 182.062C499.083 180.814 499.213 179.436 499.473 177.928L501.111 168.802C501.943 164.122 503.841 160.404 506.805 157.648C509.821 154.84 513.721 153.436 518.505 153.436C523.341 153.436 526.617 154.554 528.333 156.79L528.723 154.45H540.579L536.211 179.02C536.159 179.332 536.133 179.644 536.133 179.956ZM513.045 176.212C512.941 176.68 512.889 177.33 512.889 178.162C512.889 178.994 513.279 179.826 514.059 180.658C514.839 181.438 516.139 181.828 517.959 181.828C519.831 181.828 521.443 181.1 522.795 179.644L525.135 166.54C524.563 165.24 523.211 164.59 521.079 164.59C517.075 164.59 514.735 166.514 514.059 170.362L513.045 176.212ZM583.835 181.984C585.031 181.984 586.097 181.724 587.033 181.204L586.643 190.018C584.199 192.046 581.209 193.06 577.673 193.06C574.137 193.06 571.511 192.124 569.795 190.252C568.131 188.38 566.831 185.234 565.895 180.814L565.661 179.722C564.569 179.878 562.931 180.008 560.747 180.112L558.641 191.968H545.381L555.833 132.766H569.093L564.569 158.428C567.637 155.048 571.797 153.358 577.049 153.358C580.585 153.358 583.185 154.242 584.849 156.01C586.565 157.726 587.423 160.04 587.423 162.952C587.423 168.568 584.485 172.962 578.609 176.134L579.467 179.02C580.039 180.996 581.495 181.984 583.835 181.984ZM570.341 163.966C567.533 163.966 565.037 165.292 562.853 167.944L561.995 173.092C569.691 172.78 573.539 170.726 573.539 166.93C573.539 166.046 573.253 165.344 572.681 164.824C572.161 164.252 571.381 163.966 570.341 163.966ZM629.444 179.956C629.444 181.308 630.12 181.984 631.472 181.984C632.876 181.984 634.046 181.724 634.982 181.204L634.592 190.018C632.096 192.046 629.288 193.06 626.168 193.06C620.448 193.06 617.276 190.98 616.652 186.82C614.052 190.98 610.23 193.06 605.186 193.06C596.658 193.06 592.394 189.394 592.394 182.062C592.394 180.814 592.524 179.436 592.784 177.928L594.422 168.802C595.254 164.122 597.152 160.404 600.116 157.648C603.132 154.84 607.032 153.436 611.816 153.436C616.652 153.436 619.928 154.554 621.644 156.79L622.034 154.45H633.89L629.522 179.02C629.47 179.332 629.444 179.644 629.444 179.956ZM606.356 176.212C606.252 176.68 606.2 177.33 606.2 178.162C606.2 178.994 606.59 179.826 607.37 180.658C608.15 181.438 609.45 181.828 611.27 181.828C613.142 181.828 614.754 181.1 616.106 179.644L618.446 166.54C617.874 165.24 616.522 164.59 614.39 164.59C610.386 164.59 608.046 166.514 607.37 170.362L606.356 176.212ZM677.614 162.406C677.614 164.174 677.302 165.89 676.678 167.554C676.106 169.218 675.534 170.44 674.962 171.22L674.104 172.312H662.326C663.626 171.116 664.276 169.634 664.276 167.866C664.276 166.93 663.964 166.176 663.34 165.604C662.768 164.98 661.962 164.668 660.922 164.668C659.154 164.668 657.62 165.552 656.32 167.32L651.952 191.968H638.692L645.322 154.45H657.646L656.71 159.676C659.674 155.464 663.262 153.358 667.474 153.358C670.854 153.358 673.376 154.164 675.04 155.776C676.756 157.388 677.614 159.598 677.614 162.406ZM696.542 193.06C690.51 193.06 686.168 191.708 683.516 189.004C681.54 187.028 680.552 184.376 680.552 181.048C680.552 179.956 680.656 178.786 680.864 177.538L686.168 147.352L700.442 141.424L698.18 154.45H719.708L717.758 165.448H696.23L694.67 174.262C694.462 175.25 694.358 176.134 694.358 176.914C694.358 180.19 695.918 181.828 699.038 181.828C700.702 181.828 702.08 181.126 703.172 179.722C704.316 178.318 705.096 176.446 705.512 174.106H718.46C716.276 186.742 708.97 193.06 696.542 193.06ZM759.241 179.956C759.241 181.308 759.917 181.984 761.269 181.984C762.673 181.984 763.843 181.724 764.779 181.204L764.389 190.018C761.893 192.046 759.085 193.06 755.965 193.06C750.245 193.06 747.073 190.98 746.449 186.82C743.849 190.98 740.027 193.06 734.983 193.06C726.455 193.06 722.191 189.394 722.191 182.062C722.191 180.814 722.321 179.436 722.581 177.928L724.219 168.802C725.051 164.122 726.949 160.404 729.913 157.648C732.929 154.84 736.829 153.436 741.613 153.436C746.449 153.436 749.725 154.554 751.441 156.79L751.831 154.45H763.687L759.319 179.02C759.267 179.332 759.241 179.644 759.241 179.956ZM736.153 176.212C736.049 176.68 735.997 177.33 735.997 178.162C735.997 178.994 736.387 179.826 737.167 180.658C737.947 181.438 739.247 181.828 741.067 181.828C742.939 181.828 744.551 181.1 745.903 179.644L748.243 166.54C747.671 165.24 746.319 164.59 744.187 164.59C740.183 164.59 737.843 166.514 737.167 170.362L736.153 176.212Z" fill="#F7F6F6"/>
<path d="M223.012 144.909C206.179 160.125 176.863 167.616 162.147 170.571C181.503 162.443 203.125 148.298 221.005 123.893C221.005 123.887 227.492 130.599 223.012 144.909Z" fill="#1B2426"/>
<mask id="mask0_635_1879" style="mask-type:luminance" maskUnits="userSpaceOnUse" x="19" y="123" width="233" height="102">
<path d="M19.6768 123.413H251.56V224.64H19.6768V123.413Z" fill="white"/>
</mask>
<g mask="url(#mask0_635_1879)">
<path d="M19.6768 200.365C19.6768 200.365 38.3947 154.475 78.9419 149.142C119.498 143.807 126.513 159.101 172.137 144.159C172.137 144.159 179.933 166.571 131.195 172.261C131.195 172.261 126.127 181.152 141.333 181.152C156.542 181.152 210.351 174.956 247.787 123.882C247.787 123.882 265.329 142.025 222.831 182.219C180.331 222.414 126.519 243.054 19.6768 200.365Z" fill="#1B2426"/>
</g>
<mask id="mask1_635_1879" style="mask-type:luminance" maskUnits="userSpaceOnUse" x="70" y="26" width="144" height="128">
<path d="M70.9976 26H213.964V153.92H70.9976V26Z" fill="white"/>
</mask>
<g mask="url(#mask1_635_1879)">
<path fill-rule="evenodd" clip-rule="evenodd" d="M213.97 91.7502C213.186 55.4504 180.268 26 140.478 26C105.693 26 77.1458 48.4656 70.9976 78.3304C73.1677 71.8954 77.419 63.6188 85.678 56.6069C101.864 42.8296 114.133 41.3427 114.133 41.3427C77.2676 59.0525 67.8032 101.018 81.0943 126.07C88.8427 137.264 100.145 146.255 113.501 151.726C117.236 152.552 120.855 152.688 120.766 148.097H120.792C118.533 140.232 113.531 125.19 111.058 123.072C107.831 120.32 100.537 121.807 97.6124 118.479C94.6912 115.123 83.8671 72.8569 83.8671 72.8569C83.8671 72.8569 84.8319 71.8413 85.8265 72.1988C86.821 72.6104 98.8207 110.286 100.026 111.139C101.231 111.99 101.021 111.494 101.712 111.524C102.226 111.386 102.95 111.302 103.099 109.541C103.25 107.754 89.8669 72.5833 89.8372 72.0038C89.7779 71.3998 89.6265 69.5581 91.1346 69.8046C92.6397 70.0267 106.839 106.627 107.712 107.534C108.615 108.442 109.128 108.222 109.793 108.168C110.244 107.838 110.636 107.811 110.636 106.654C110.666 105.528 95.0207 69.3388 95.9855 68.2933C96.9504 67.2208 98.1854 68.705 98.5772 69.2006C98.9721 69.6963 114.223 104.29 115.609 105.528C116.966 106.765 117.539 106.435 118.023 106.27C118.593 105.831 118.806 106.299 119.136 104.951C119.439 103.575 101.323 67.9358 101.775 67.0556C102.256 66.2052 103.764 66.4219 103.764 66.4219C103.764 66.4219 125.979 104.951 126.19 109.157C126.4 113.393 119.679 116.94 119.258 120.9C118.895 123.952 126.795 140.424 131.314 148.893C132.278 150.489 133.905 152.663 136.046 153.487C139.635 154.89 141.081 153.571 141.111 150.269L141.535 113.089C141.384 111.824 141.14 110.589 140.659 109.679C140.116 108.718 139.332 107.976 138.608 107.48C131.495 105.308 126.282 99.0113 126.038 87.8177C125.768 73.6288 133.576 56.9075 143.673 56.9075C153.772 56.9075 162.301 73.6288 162.604 87.8177C162.845 98.3775 158.442 104.566 152.053 107.069C151.299 107.673 150.275 108.607 149.643 109.736C149.221 110.533 149.007 111.935 148.948 113.311L150.516 149.527H150.545C150.545 149.527 151.813 153.129 153.953 153.018C155.037 152.964 155.761 151.726 156.213 150.545H156.183C156.183 150.545 156.334 150.05 156.634 149.17C156.756 148.647 156.815 148.289 156.815 148.289L156.907 148.316C160.615 136.933 177.285 85.5644 178.549 80.5594C179.995 74.9206 183.855 62.0506 188.046 64.2227C192.235 66.3948 193.892 82.6475 191.392 100.414C188.86 118.178 184.276 128.711 179.574 133.136C174.841 137.537 169.355 134.566 167.155 140.067C165.677 143.807 164.653 147.986 164.142 150.326C164.294 151.093 164.864 152.853 166.853 153.129C167.88 153.294 169.055 153.075 170.08 152.799C170.893 152.471 171.736 152.168 172.55 151.81C197.478 141.551 214.54 118.536 213.97 91.7502Z" fill="#1B2426"/>
</g>
<path d="M223.012 144.909C206.179 160.125 176.863 167.616 162.147 170.571C181.503 162.443 203.125 148.298 221.005 123.893C221.005 123.887 227.492 130.599 223.012 144.909Z" fill="#FEB200"/>
<mask id="mask2_635_1879" style="mask-type:luminance" maskUnits="userSpaceOnUse" x="19" y="123" width="233" height="102">
<path d="M19.6768 123.413H251.56V224.64H19.6768V123.413Z" fill="white"/>
</mask>
<g mask="url(#mask2_635_1879)">
<path d="M19.6768 200.365C19.6768 200.365 38.3947 154.475 78.9419 149.142C119.498 143.807 126.513 159.101 172.137 144.159C172.137 144.159 179.933 166.571 131.195 172.261C131.195 172.261 126.127 181.152 141.333 181.152C156.542 181.152 210.351 174.956 247.787 123.882C247.787 123.882 265.329 142.025 222.831 182.219C180.331 222.414 126.519 243.054 19.6768 200.365Z" fill="#FEB200"/>
</g>
<mask id="mask3_635_1879" style="mask-type:luminance" maskUnits="userSpaceOnUse" x="70" y="26" width="144" height="128">
<path d="M70.9976 26H213.964V153.92H70.9976V26Z" fill="white"/>
</mask>
<g mask="url(#mask3_635_1879)">
<path fill-rule="evenodd" clip-rule="evenodd" d="M213.97 91.7502C213.186 55.4504 180.268 26 140.478 26C105.693 26 77.1458 48.4656 70.9976 78.3304C73.1677 71.8954 77.419 63.6188 85.678 56.6069C101.864 42.8296 114.133 41.3427 114.133 41.3427C77.2676 59.0525 67.8032 101.018 81.0943 126.07C88.8427 137.264 100.145 146.255 113.501 151.726C117.236 152.552 120.855 152.688 120.766 148.097H120.792C118.533 140.232 113.531 125.19 111.058 123.072C107.831 120.32 100.537 121.807 97.6124 118.479C94.6912 115.123 83.8671 72.8569 83.8671 72.8569C83.8671 72.8569 84.8319 71.8413 85.8265 72.1988C86.821 72.6104 98.8207 110.286 100.026 111.139C101.231 111.99 101.021 111.494 101.712 111.524C102.226 111.386 102.95 111.302 103.099 109.541C103.25 107.754 89.8669 72.5833 89.8372 72.0038C89.7779 71.3998 89.6265 69.5581 91.1346 69.8046C92.6397 70.0267 106.839 106.627 107.712 107.534C108.615 108.442 109.128 108.222 109.793 108.168C110.244 107.838 110.636 107.811 110.636 106.654C110.666 105.528 95.0207 69.3388 95.9855 68.2933C96.9504 67.2208 98.1854 68.705 98.5772 69.2006C98.9721 69.6963 114.223 104.29 115.609 105.528C116.966 106.765 117.539 106.435 118.023 106.27C118.593 105.831 118.806 106.299 119.136 104.951C119.439 103.575 101.323 67.9358 101.775 67.0556C102.256 66.2052 103.764 66.4219 103.764 66.4219C103.764 66.4219 125.979 104.951 126.19 109.157C126.4 113.393 119.679 116.94 119.258 120.9C118.895 123.952 126.795 140.424 131.314 148.893C132.278 150.489 133.905 152.663 136.046 153.487C139.635 154.89 141.081 153.571 141.111 150.269L141.535 113.089C141.384 111.824 141.14 110.589 140.659 109.679C140.116 108.718 139.332 107.976 138.608 107.48C131.495 105.308 126.282 99.0113 126.038 87.8177C125.768 73.6288 133.576 56.9075 143.673 56.9075C153.772 56.9075 162.301 73.6288 162.604 87.8177C162.845 98.3775 158.442 104.566 152.053 107.069C151.299 107.673 150.275 108.607 149.643 109.736C149.221 110.533 149.007 111.935 148.948 113.311L150.516 149.527H150.545C150.545 149.527 151.813 153.129 153.953 153.018C155.037 152.964 155.761 151.726 156.213 150.545H156.183C156.183 150.545 156.334 150.05 156.634 149.17C156.756 148.647 156.815 148.289 156.815 148.289L156.907 148.316C160.615 136.933 177.285 85.5644 178.549 80.5594C179.995 74.9206 183.855 62.0506 188.046 64.2227C192.235 66.3948 193.892 82.6475 191.392 100.414C188.86 118.178 184.276 128.711 179.574 133.136C174.841 137.537 169.355 134.566 167.155 140.067C165.677 143.807 164.653 147.986 164.142 150.326C164.294 151.093 164.864 152.853 166.853 153.129C167.88 153.294 169.055 153.075 170.08 152.799C170.893 152.471 171.736 152.168 172.55 151.81C197.478 141.551 214.54 118.536 213.97 91.7502Z" fill="#FEB200"/>
</g>
</g>
<defs>
<clipPath id="clip0_635_1879">
<rect width="783" height="256" fill="white"/>
</clipPath>
</defs>
</svg>
