<svg width="285" height="256" viewBox="0 0 285 256" fill="none" xmlns="http://www.w3.org/2000/svg">
<path d="M223.012 144.909C206.179 160.125 176.863 167.616 162.147 170.571C181.503 162.443 203.125 148.298 221.005 123.893C221.005 123.887 227.492 130.599 223.012 144.909Z" fill="#FEB200"/>
<mask id="mask0_635_1889" style="mask-type:luminance" maskUnits="userSpaceOnUse" x="19" y="123" width="233" height="102">
<path d="M19.6768 123.413H251.56V224.64H19.6768V123.413Z" fill="white"/>
</mask>
<g mask="url(#mask0_635_1889)">
<path d="M19.6768 200.365C19.6768 200.365 38.3947 154.475 78.9419 149.142C119.498 143.807 126.513 159.101 172.137 144.159C172.137 144.159 179.933 166.571 131.195 172.261C131.195 172.261 126.127 181.152 141.333 181.152C156.542 181.152 210.351 174.956 247.787 123.882C247.787 123.882 265.329 142.025 222.831 182.219C180.331 222.414 126.519 243.054 19.6768 200.365Z" fill="#FEB200"/>
</g>
<mask id="mask1_635_1889" style="mask-type:luminance" maskUnits="userSpaceOnUse" x="70" y="26" width="144" height="128">
<path d="M70.9976 26H213.964V153.92H70.9976V26Z" fill="white"/>
</mask>
<g mask="url(#mask1_635_1889)">
<path fill-rule="evenodd" clip-rule="evenodd" d="M213.97 91.7502C213.186 55.4504 180.268 26 140.478 26C105.693 26 77.1458 48.4656 70.9976 78.3304C73.1677 71.8954 77.419 63.6188 85.678 56.6069C101.864 42.8296 114.133 41.3427 114.133 41.3427C77.2676 59.0525 67.8032 101.018 81.0943 126.07C88.8427 137.264 100.145 146.255 113.501 151.726C117.236 152.552 120.855 152.688 120.766 148.097H120.792C118.533 140.232 113.531 125.19 111.058 123.072C107.831 120.32 100.537 121.807 97.6124 118.479C94.6912 115.123 83.8671 72.8569 83.8671 72.8569C83.8671 72.8569 84.8319 71.8413 85.8265 72.1988C86.821 72.6104 98.8207 110.286 100.026 111.139C101.231 111.99 101.021 111.494 101.712 111.524C102.226 111.386 102.95 111.302 103.099 109.541C103.25 107.754 89.8669 72.5833 89.8372 72.0038C89.7779 71.3998 89.6265 69.5581 91.1346 69.8046C92.6397 70.0267 106.839 106.627 107.712 107.534C108.615 108.442 109.128 108.222 109.793 108.168C110.244 107.838 110.636 107.811 110.636 106.654C110.666 105.528 95.0207 69.3388 95.9855 68.2933C96.9504 67.2208 98.1854 68.705 98.5772 69.2006C98.9721 69.6963 114.223 104.29 115.609 105.528C116.966 106.765 117.539 106.435 118.023 106.27C118.593 105.831 118.806 106.299 119.136 104.951C119.439 103.575 101.323 67.9358 101.775 67.0556C102.256 66.2052 103.764 66.4219 103.764 66.4219C103.764 66.4219 125.979 104.951 126.19 109.157C126.4 113.393 119.679 116.94 119.258 120.9C118.895 123.952 126.795 140.424 131.314 148.893C132.278 150.489 133.905 152.663 136.046 153.487C139.635 154.89 141.081 153.571 141.111 150.269L141.535 113.089C141.384 111.824 141.14 110.589 140.659 109.679C140.116 108.718 139.332 107.976 138.608 107.48C131.495 105.308 126.282 99.0113 126.038 87.8177C125.768 73.6288 133.576 56.9075 143.673 56.9075C153.772 56.9075 162.301 73.6288 162.604 87.8177C162.845 98.3775 158.442 104.566 152.053 107.069C151.299 107.673 150.275 108.607 149.643 109.736C149.221 110.533 149.007 111.935 148.948 113.311L150.516 149.527H150.545C150.545 149.527 151.813 153.129 153.953 153.018C155.037 152.964 155.761 151.726 156.213 150.545H156.183C156.183 150.545 156.334 150.05 156.634 149.17C156.756 148.647 156.815 148.289 156.815 148.289L156.907 148.316C160.615 136.933 177.285 85.5644 178.549 80.5594C179.995 74.9206 183.855 62.0506 188.046 64.2227C192.235 66.3948 193.892 82.6475 191.392 100.414C188.86 118.178 184.276 128.711 179.574 133.136C174.841 137.537 169.355 134.566 167.155 140.067C165.677 143.807 164.653 147.986 164.142 150.326C164.294 151.093 164.864 152.853 166.853 153.129C167.88 153.294 169.055 153.075 170.08 152.799C170.893 152.471 171.736 152.168 172.55 151.81C197.478 141.551 214.54 118.536 213.97 91.7502Z" fill="#FEB200"/>
</g>
</svg>
