<svg xmlns="http://www.w3.org/2000/svg" xmlns:xlink="http://www.w3.org/1999/xlink" width="500" zoomAndPan="magnify" viewBox="0 0 375 374.999991" height="500" preserveAspectRatio="xMidYMid meet" version="1.0"><defs><clipPath id="b355aad1d3"><path d="M 25 27 L 309 27 L 309 349 L 25 349 Z M 25 27 " clip-rule="nonzero"/></clipPath><clipPath id="8da94fc682"><path d="M 149.105469 -43.578125 L 418.257812 148.652344 L 225.589844 418.414062 L -43.5625 226.183594 Z M 149.105469 -43.578125 " clip-rule="nonzero"/></clipPath><clipPath id="3ca26bcec4"><path d="M 149.105469 -43.578125 L 418.257812 148.652344 L 225.589844 418.414062 L -43.5625 226.183594 Z M 149.105469 -43.578125 " clip-rule="nonzero"/></clipPath><clipPath id="3786b5abba"><path d="M 109 330 L 145 330 L 145 344 L 109 344 Z M 109 330 " clip-rule="nonzero"/></clipPath><clipPath id="e0c8c9b8fa"><path d="M 149.105469 -43.578125 L 418.257812 148.652344 L 225.589844 418.414062 L -43.5625 226.183594 Z M 149.105469 -43.578125 " clip-rule="nonzero"/></clipPath><clipPath id="a4f19c2331"><path d="M 149.105469 -43.578125 L 418.257812 148.652344 L 225.589844 418.414062 L -43.5625 226.183594 Z M 149.105469 -43.578125 " clip-rule="nonzero"/></clipPath><clipPath id="4dc8944cc5"><path d="M 59 296 L 86 296 L 86 316 L 59 316 Z M 59 296 " clip-rule="nonzero"/></clipPath><clipPath id="4496a9cb14"><path d="M 149.105469 -43.578125 L 418.257812 148.652344 L 225.589844 418.414062 L -43.5625 226.183594 Z M 149.105469 -43.578125 " clip-rule="nonzero"/></clipPath><clipPath id="d48b2ef49c"><path d="M 149.105469 -43.578125 L 418.257812 148.652344 L 225.589844 418.414062 L -43.5625 226.183594 Z M 149.105469 -43.578125 " clip-rule="nonzero"/></clipPath><clipPath id="4d7f9ecc18"><path d="M 52 288 L 57 288 L 57 291 L 52 291 Z M 52 288 " clip-rule="nonzero"/></clipPath><clipPath id="478d485180"><path d="M 149.105469 -43.578125 L 418.257812 148.652344 L 225.589844 418.414062 L -43.5625 226.183594 Z M 149.105469 -43.578125 " clip-rule="nonzero"/></clipPath><clipPath id="225b9b8702"><path d="M 149.105469 -43.578125 L 418.257812 148.652344 L 225.589844 418.414062 L -43.5625 226.183594 Z M 149.105469 -43.578125 " clip-rule="nonzero"/></clipPath><clipPath id="654b46b3d5"><path d="M 277 50 L 289 50 L 289 59 L 277 59 Z M 277 50 " clip-rule="nonzero"/></clipPath><clipPath id="dc17e27bdd"><path d="M 149.105469 -43.578125 L 418.257812 148.652344 L 225.589844 418.414062 L -43.5625 226.183594 Z M 149.105469 -43.578125 " clip-rule="nonzero"/></clipPath><clipPath id="cd1d9642e5"><path d="M 149.105469 -43.578125 L 418.257812 148.652344 L 225.589844 418.414062 L -43.5625 226.183594 Z M 149.105469 -43.578125 " clip-rule="nonzero"/></clipPath><clipPath id="1aeb4e8f8b"><path d="M 257 40 L 272 40 L 272 49 L 257 49 Z M 257 40 " clip-rule="nonzero"/></clipPath><clipPath id="dc0d687b28"><path d="M 149.105469 -43.578125 L 418.257812 148.652344 L 225.589844 418.414062 L -43.5625 226.183594 Z M 149.105469 -43.578125 " clip-rule="nonzero"/></clipPath><clipPath id="5071f1bc54"><path d="M 149.105469 -43.578125 L 418.257812 148.652344 L 225.589844 418.414062 L -43.5625 226.183594 Z M 149.105469 -43.578125 " clip-rule="nonzero"/></clipPath><clipPath id="bb0a4de732"><path d="M 140 29 L 144 29 L 144 33 L 140 33 Z M 140 29 " clip-rule="nonzero"/></clipPath><clipPath id="b6047aeaec"><path d="M 149.105469 -43.578125 L 418.257812 148.652344 L 225.589844 418.414062 L -43.5625 226.183594 Z M 149.105469 -43.578125 " clip-rule="nonzero"/></clipPath><clipPath id="a6e673a311"><path d="M 149.105469 -43.578125 L 418.257812 148.652344 L 225.589844 418.414062 L -43.5625 226.183594 Z M 149.105469 -43.578125 " clip-rule="nonzero"/></clipPath><clipPath id="f218102c3f"><path d="M 36 183 L 55 183 L 55 244 L 36 244 Z M 36 183 " clip-rule="nonzero"/></clipPath><clipPath id="6bf86346e2"><path d="M 149.105469 -43.578125 L 418.257812 148.652344 L 225.589844 418.414062 L -43.5625 226.183594 Z M 149.105469 -43.578125 " clip-rule="nonzero"/></clipPath><clipPath id="87f5e0995d"><path d="M 149.105469 -43.578125 L 418.257812 148.652344 L 225.589844 418.414062 L -43.5625 226.183594 Z M 149.105469 -43.578125 " clip-rule="nonzero"/></clipPath><clipPath id="0205367602"><path d="M 92 104 L 283.480469 104 L 283.480469 278 L 92 278 Z M 92 104 " clip-rule="nonzero"/></clipPath></defs><g clip-path="url(#b355aad1d3)"><g clip-path="url(#8da94fc682)"><g clip-path="url(#3ca26bcec4)"><path fill="#300c30" d="M 285.0625 319.492188 C 288.390625 317.085938 294.148438 314.53125 298.839844 311.230469 C 303.457031 307.875 307.492188 304.335938 307.992188 301.472656 C 308.609375 297.890625 303.953125 300.1875 302.859375 299.195312 C 301.828125 298.289062 299.878906 294.609375 297.492188 291.203125 C 295.109375 287.792969 292.320312 284.617188 289.945312 284.34375 C 288.363281 284.164062 285.542969 285.710938 282.085938 288.242188 C 280.308594 289.464844 278.546875 291.125 276.359375 292.628906 C 274.171875 294.132812 271.867188 295.746094 269.503906 297.476562 L 265.9375 300.109375 C 264.699219 300.941406 263.367188 301.660156 262.089844 302.453125 C 259.527344 304.003906 256.96875 305.558594 254.5 307.050781 C 249.394531 309.71875 244.488281 311.839844 240.78125 313.421875 C 227.867188 317.777344 214.664062 320.925781 201.175781 322.871094 C 188.214844 324.21875 174.996094 324.582031 160.132812 322.414062 C 139.914062 319.039062 123.109375 311.230469 107.550781 301.09375 C 92.003906 290.742188 77.308594 278.1875 61.765625 260.171875 C 52.9375 249.015625 46.257812 236.695312 41.71875 223.214844 C 36.644531 208.269531 34.433594 191.121094 35.226562 174.226562 C 36.019531 157.332031 39.96875 140.742188 45.640625 126.390625 C 47.164062 122.835938 48.65625 119.367188 50.097656 116 C 51.859375 112.777344 53.558594 109.65625 55.195312 106.648438 C 56.707031 103.539062 58.582031 100.824219 60.328125 98.199219 C 62.046875 95.53125 63.679688 92.996094 65.21875 90.609375 C 64.371094 92.078125 62.730469 89.671875 65.21875 90.609375 C 73.976562 80.4375 85.199219 69.324219 99.136719 59.902344 C 113.074219 50.484375 129.554688 43.097656 146.664062 38.433594 C 163.773438 33.765625 181.484375 31.941406 197.746094 32.1875 L 209.648438 32.785156 C 213.519531 33.046875 217.195312 33.714844 220.820312 34.097656 L 226.160156 34.71875 C 227.882812 35 229.542969 35.386719 231.1875 35.691406 C 234.476562 36.34375 237.636719 36.921875 240.667969 37.421875 C 233.539062 36.269531 237.398438 36.761719 242.894531 37.589844 C 248.21875 38.792969 255.351562 40.433594 254.742188 39.78125 C 253.195312 38.109375 251.101562 36.765625 248.726562 35.644531 C 246.242188 34.429688 243.636719 33.589844 240.910156 33.136719 L 225.300781 30.554688 L 214.6875 28.675781 L 212.0625 28.230469 L 209.394531 28.03125 L 204.101562 27.636719 C 197.097656 26.847656 190.105469 27.210938 183.257812 27.21875 C 169.546875 27.9375 156.253906 29.246094 143.152344 31.457031 C 144.296875 35.136719 138.257812 33.511719 136.417969 34.972656 C 136.320312 40.636719 128.476562 35.65625 136.417969 34.972656 C 134.40625 34.726562 131.246094 35.378906 127.535156 36.332031 C 125.6875 36.816406 123.703125 37.410156 121.683594 38.050781 C 119.660156 38.695312 117.714844 39.726562 115.75 40.578125 C 111.871094 42.457031 108 44.058594 105.191406 45.894531 L 99.417969 49.519531 C 97.703125 50.589844 95.140625 51.605469 92.378906 53.09375 C 89.667969 54.65625 86.582031 56.410156 83.488281 58.34375 C 80.304688 60.160156 77.472656 62.617188 75.011719 65.160156 C 72.550781 67.703125 70.441406 70.296875 69.207031 72.976562 C 69.347656 72.574219 71.992188 70.113281 76.007812 66.457031 C 78.082031 64.707031 80.246094 62.339844 83.125 60.449219 C 85.910156 58.4375 88.945312 56.296875 92.039062 54.089844 C 104.851562 45.90625 120.265625 39.285156 126.714844 38.363281 C 129.074219 37.898438 127.847656 38.625 124.625 40.027344 L 121.847656 41.199219 C 120.84375 41.710938 119.753906 42.273438 118.585938 42.875 C 116.246094 44.039062 113.613281 45.355469 110.871094 46.734375 C 108.0625 47.960938 105.4375 49.847656 102.753906 51.421875 C 100.105469 53.066406 97.480469 54.605469 95.160156 56.109375 L 85.710938 63.152344 C 83.972656 64.324219 81.558594 67.398438 79.222656 70.292969 C 76.882812 73.1875 74.5 75.867188 72.902344 76.746094 C 72.648438 76.90625 68.464844 76.375 68.464844 76.375 C 67.292969 77.820312 66.8125 79.949219 65.902344 82.398438 C 65.40625 83.753906 64.78125 85.046875 64.03125 86.277344 C 63.039062 87.792969 61.96875 89.25 60.820312 90.648438 C 57.417969 94.535156 56.96875 93.3125 57.710938 90.828125 C 58.453125 88.347656 60.355469 84.601562 61.65625 83.925781 C 59.394531 85.203125 57.542969 87.117188 55.5625 89.144531 C 53.582031 91.175781 51.644531 93.460938 49.699219 95.90625 C 47.753906 98.347656 46.28125 101.273438 44.578125 104.148438 C 43.773438 105.613281 42.957031 107.101562 42.128906 108.609375 L 40.933594 110.910156 L 39.941406 113.359375 C 34.171875 126.242188 31.109375 141.046875 28.296875 154.785156 C 25.839844 169.570312 25.222656 184.429688 26.445312 199.367188 C 27.90625 214.117188 31.332031 228.0625 35.308594 240.363281 C 44.015625 265.300781 59.605469 285.257812 77.730469 300.164062 C 79.867188 302.1875 82.445312 303.65625 84.785156 305.433594 L 91.886719 310.507812 L 99.429688 314.851562 C 101.960938 316.25 104.339844 317.910156 107.027344 319.007812 C 112.328125 321.308594 117.355469 324.21875 122.910156 325.976562 L 131.070312 329.070312 C 133.835938 330 136.679688 330.6875 139.507812 331.5625 C 140.703125 331.867188 143.324219 333.011719 146.726562 334.078125 L 158.476562 337.269531 C 162.609375 338.234375 166.730469 338.65625 169.855469 339.082031 C 172.976562 339.507812 175.171875 339.511719 175.511719 339.003906 C 175.023438 339.726562 172.46875 339.933594 168.765625 339.972656 C 165.074219 339.90625 160.195312 340.078125 155.277344 339.09375 C 145.296875 337.957031 135.121094 334.492188 131.664062 333.375 C 129.285156 332.527344 126.742188 331.214844 123.921875 330.070312 C 121.160156 328.785156 118.054688 327.785156 115.105469 326.136719 L 105.945312 321.285156 L 103.613281 320.070312 L 101.40625 318.632812 L 97.019531 315.777344 C 85.269531 308.421875 75.855469 299.699219 71.613281 295.796875 C 71.226562 295.453125 69.574219 294.195312 67.375 292.558594 C 65.261719 290.84375 62.839844 288.527344 60.472656 286.539062 C 58.101562 284.546875 55.9375 282.75 54.671875 281.832031 C 53.480469 280.855469 53.0625 280.863281 54.054688 282.613281 C 66.710938 302.515625 88.046875 319.003906 111.417969 329.128906 C 112.878906 329.773438 114.296875 330.515625 115.785156 331.085938 L 120.289062 332.667969 L 129.242188 335.851562 C 132.277344 336.71875 135.324219 337.433594 138.34375 338.261719 C 141.363281 339.085938 144.335938 340.023438 147.398438 340.453125 C 153.480469 341.515625 159.425781 343.015625 165.40625 343.566406 C 168.382812 343.980469 171.339844 344.421875 174.273438 344.894531 C 177.210938 345.132812 180.125 345.375 183.023438 345.691406 C 184.507812 344.796875 186.800781 344.492188 189.464844 344.503906 C 192.320312 344.332031 195.179688 344.320312 198.035156 344.460938 C 200.941406 344.542969 203.769531 344.816406 205.902344 344.671875 C 208.039062 344.527344 209.519531 344.1875 209.808594 343.621094 C 209.09375 345.023438 207.542969 345.914062 205.507812 346.484375 C 203.445312 346.890625 200.886719 346.898438 198.207031 346.789062 L 190.109375 346.269531 C 187.480469 345.9375 185.027344 345.605469 183.019531 345.710938 C 179.800781 345.847656 176.574219 346.164062 173.347656 346.148438 L 163.65625 345.769531 L 158.800781 345.554688 L 153.988281 344.90625 L 144.34375 343.597656 C 156.0625 346.324219 167.933594 347.90625 179.957031 348.34375 C 191.980469 348.777344 203.933594 348.0625 215.820312 346.191406 C 222.070312 345.539062 228.046875 343.652344 234.199219 342.3125 C 237.304688 341.707031 240.195312 340.488281 243.191406 339.550781 L 252.128906 336.542969 C 257.808594 333.96875 263.667969 331.65625 269.164062 328.800781 L 277.246094 324.28125 C 279.941406 322.789062 282.636719 321.304688 285.0625 319.492188 Z M 293.453125 299.035156 C 294.554688 299.074219 293.347656 302.535156 292.703125 302.515625 C 291.625 302.457031 292.832031 299 293.453125 299.035156 Z M 251.882812 331.566406 C 254.503906 332.914062 233.902344 341.394531 246.449219 334.304688 C 247.210938 333.894531 251.179688 331.398438 251.882812 331.5625 Z M 238.84375 335.894531 C 239.988281 336.410156 235.554688 339 232.140625 339.921875 C 228.789062 341.007812 226.828125 341.179688 233.296875 338.253906 C 234.125 338.023438 238.125 335.558594 238.847656 335.890625 Z M 274.875 311.964844 Z M 227.042969 338.578125 C 228.050781 339.066406 220.808594 342.332031 215.589844 343.226562 C 210.433594 344.390625 207.8125 344.574219 218.535156 341.421875 C 221.367188 340.621094 225.941406 337.882812 227.042969 338.578125 Z M 265.527344 316.664062 C 266.582031 316.933594 264.761719 320.035156 264.144531 319.867188 C 263.121094 319.601562 264.929688 316.492188 265.519531 316.675781 Z M 259.511719 320.855469 C 261.339844 322.125 251.707031 327.554688 251.496094 327.65625 C 243.507812 331.972656 231.863281 334.734375 223.125 336.183594 C 219.707031 337.078125 213.996094 337.644531 210.738281 337.804688 C 207.480469 337.96875 206.601562 337.511719 212.4375 335.613281 C 217.191406 334.34375 223.839844 332.550781 231.457031 331.027344 C 235.222656 330.148438 239.054688 328.878906 243.015625 327.828125 C 247.027344 326.867188 250.78125 325.285156 254.445312 323.847656 C 255.078125 323.621094 259.03125 320.527344 259.5 320.867188 Z M 202.367188 336.214844 C 203.203125 336.9375 200.332031 338.816406 199.855469 338.398438 C 199.058594 337.664062 201.90625 335.789062 202.367188 336.214844 Z M 195.359375 337.28125 C 196.25 338.089844 190.996094 340.925781 189.914062 339.910156 C 189.105469 339.09375 194.292969 336.257812 195.359375 337.28125 Z M 68.816406 283.011719 Z M 38.902344 234.542969 C 38.390625 235.34375 39.691406 233.304688 38.902344 234.542969 Z M 37.046875 229.363281 C 36.460938 230.296875 33.273438 226.90625 34 225.945312 C 34.585938 225.066406 37.671875 228.445312 37.046875 229.363281 Z M 34.699219 221.449219 C 34.046875 222.300781 31.910156 219.671875 32.300781 219.179688 C 32.957031 218.359375 35.085938 220.960938 34.699219 221.449219 Z M 33.6875 217.433594 C 34.417969 216.554688 32.679688 214.257812 31.171875 211.765625 C 29.808594 209.253906 28.503906 206.589844 29.542969 205.488281 C 30.722656 206.941406 31.765625 208.488281 32.667969 210.125 C 33.898438 212.667969 35.355469 215.453125 33.6875 217.433594 Z M 30.664062 201.136719 C 28.425781 202.933594 28.125 182.640625 30.050781 195.632812 L 30.519531 198.472656 C 30.777344 199.679688 30.941406 200.855469 30.664062 201.136719 Z M 29.734375 190.101562 C 29.734375 190.101562 28.953125 188.589844 28.292969 186.945312 C 27.632812 185.300781 27.042969 183.535156 27.613281 183.15625 C 27.90625 183.34375 28.171875 183.570312 28.402344 183.832031 C 28.976562 184.355469 29.488281 184.933594 29.933594 185.570312 C 30.894531 186.953125 31.417969 188.652344 29.734375 190.09375 Z M 29.546875 178.996094 C 27.472656 180.484375 29.148438 160.199219 29.757812 173.4375 C 29.800781 174.21875 30.210938 178.523438 29.550781 178.988281 Z M 30.488281 165.121094 C 30.890625 164.875 30.941406 162.953125 30.878906 160.105469 L 30.734375 155.257812 C 30.785156 153.488281 30.9375 151.628906 31.078125 149.726562 C 31.417969 145.933594 31.664062 141.960938 32.539062 138.925781 C 33.488281 135.917969 34.601562 133.722656 35.917969 133.261719 C 34.632812 133.738281 33.738281 141.007812 33.710938 148.492188 C 33.058594 155.847656 33.523438 163.394531 30.492188 165.113281 Z M 38.457031 131.167969 C 37.164062 131.664062 38.117188 127.46875 39.585938 124.953125 C 40.960938 122.394531 42.101562 121.28125 39.804688 127.171875 C 39.675781 127.71875 38.992188 131 38.457031 131.167969 Z M 42.128906 122.066406 C 42.128906 122.066406 42.144531 120.363281 42.324219 118.597656 C 42.5 116.835938 42.855469 115.003906 43.457031 114.863281 C 43.644531 115.175781 43.789062 115.507812 43.894531 115.855469 C 44.15625 116.585938 44.339844 117.335938 44.441406 118.105469 C 44.65625 119.78125 44.324219 121.535156 42.140625 122.074219 Z M 49.09375 108.261719 Z M 51.222656 104.605469 C 50.082031 104.804688 51.054688 98.847656 52.675781 98.78125 C 53.761719 98.640625 52.675781 104.425781 51.238281 104.609375 Z M 151.386719 34.871094 C 150.480469 34.101562 154.496094 31.683594 155.386719 32.46875 C 156.273438 33.257812 152.269531 35.652344 151.386719 34.871094 Z M 161.394531 33.34375 C 160.320312 32.421875 164.617188 31.355469 167.609375 31.433594 C 170.601562 31.511719 172.167969 31.925781 165.6875 32.695312 C 165.121094 32.8125 161.796875 33.738281 161.394531 33.34375 Z M 87.875 65.960938 Z M 101.78125 56.339844 C 101.78125 56.339844 102.773438 54.949219 103.9375 53.59375 C 105.105469 52.242188 106.445312 50.933594 107.027344 51.164062 C 107.003906 51.53125 106.9375 51.886719 106.820312 52.230469 C 106.621094 52.984375 106.339844 53.707031 105.980469 54.394531 C 105.171875 55.882812 103.886719 57.140625 101.78125 56.339844 Z M 112.875 50.089844 C 110.191406 48.800781 128.085938 42.199219 116.722656 48.289062 C 116.222656 48.5625 113.382812 50.347656 112.875 50.089844 Z M 127.148438 43.824219 C 124.621094 42.285156 143.109375 37.414062 131.164062 42.394531 C 130.648438 42.621094 127.632812 44.128906 127.144531 43.832031 Z M 50.085938 113.617188 C 49.015625 113.785156 49.304688 110.457031 49.9375 110.355469 C 50.992188 110.226562 50.714844 113.542969 50.085938 113.617188 Z M 50.085938 113.617188 " fill-opacity="1" fill-rule="evenodd"/></g></g></g><g clip-path="url(#3786b5abba)"><g clip-path="url(#e0c8c9b8fa)"><g clip-path="url(#a4f19c2331)"><path fill="#300c30" d="M 144.347656 343.578125 C 142.402344 344.410156 139.390625 343.855469 135.898438 342.820312 C 132.433594 341.699219 128.433594 340.289062 124.867188 338.121094 C 121.246094 336.121094 117.816406 334.144531 115.035156 332.816406 C 112.320312 331.328125 110.296875 330.359375 109.246094 330.882812 C 110.800781 330.082031 113.339844 330.988281 116.636719 332.101562 C 119.929688 333.214844 123.773438 335.054688 127.570312 336.992188 C 131.394531 338.863281 135.335938 340.308594 138.386719 341.640625 C 141.460938 342.890625 143.695312 343.820312 144.347656 343.578125 Z M 144.347656 343.578125 " fill-opacity="1" fill-rule="evenodd"/></g></g></g><g clip-path="url(#4dc8944cc5)"><g clip-path="url(#4496a9cb14)"><g clip-path="url(#d48b2ef49c)"><path fill="#300c30" d="M 85.359375 315.789062 C 85.335938 314.914062 78.503906 312.027344 71.726562 308.105469 C 65.359375 303.761719 58.511719 299.011719 59.058594 296.042969 C 58.742188 297.445312 65.425781 300.980469 71.789062 304.882812 C 74.867188 306.96875 78.417969 308.546875 80.929688 310.386719 C 83.480469 312.179688 85.210938 314 85.359375 315.789062 Z M 85.359375 315.789062 " fill-opacity="1" fill-rule="evenodd"/></g></g></g><g clip-path="url(#4d7f9ecc18)"><g clip-path="url(#478d485180)"><g clip-path="url(#225b9b8702)"><path fill="#300c30" d="M 56.335938 290.398438 C 56.191406 291.480469 52.894531 289.964844 52.980469 289.328125 C 53.152344 288.261719 56.4375 289.769531 56.335938 290.398438 Z M 56.335938 290.398438 " fill-opacity="1" fill-rule="evenodd"/></g></g></g><g clip-path="url(#654b46b3d5)"><g clip-path="url(#dc17e27bdd)"><g clip-path="url(#cd1d9642e5)"><path fill="#300c30" d="M 277.21875 50.898438 C 276.902344 47.734375 298.238281 65.503906 282.304688 54.628906 C 281.53125 54.101562 277.300781 51.785156 277.21875 50.898438 Z M 277.21875 50.898438 " fill-opacity="1" fill-rule="evenodd"/></g></g></g><g clip-path="url(#1aeb4e8f8b)"><g clip-path="url(#dc0d687b28)"><g clip-path="url(#5071f1bc54)"><path fill="#300c30" d="M 257.558594 41.074219 C 256.964844 37.84375 280.121094 52.257812 268.351562 47.269531 C 268.460938 47.316406 265.855469 46.195312 263.195312 44.851562 C 260.535156 43.507812 257.847656 41.875 257.558594 41.074219 Z M 257.558594 41.074219 " fill-opacity="1" fill-rule="evenodd"/></g></g></g><g clip-path="url(#bb0a4de732)"><g clip-path="url(#b6047aeaec)"><g clip-path="url(#a6e673a311)"><path fill="#300c30" d="M 143.144531 31.433594 C 137.535156 34.589844 141.570312 26.347656 143.144531 31.433594 Z M 143.144531 31.433594 " fill-opacity="1" fill-rule="evenodd"/></g></g></g><g clip-path="url(#f218102c3f)"><g clip-path="url(#6bf86346e2)"><g clip-path="url(#87f5e0995d)"><path fill="#300c30" d="M 54.488281 243.8125 C 54.363281 244.035156 53.464844 242.632812 52.144531 240.339844 L 49.898438 236.324219 C 49.160156 234.792969 48.519531 233.082031 47.800781 231.355469 L 45.683594 226.183594 C 44.984375 224.628906 44.421875 223.023438 44 221.371094 L 42.347656 215.480469 C 40.878906 210.960938 39 203.890625 37.316406 197.382812 C 36.414062 190.839844 35.929688 184.890625 38.285156 183.222656 C 37.707031 183.535156 38.6875 190.015625 39.585938 196.957031 C 41.242188 203.859375 42.796875 211.226562 43.757812 213.847656 C 44.554688 216.84375 47.179688 223.574219 50.28125 229.601562 C 50.988281 231.136719 51.636719 232.648438 52.1875 234.117188 C 52.738281 235.589844 53.488281 236.851562 53.90625 238.097656 C 54.84375 240.523438 55.167969 242.5625 54.488281 243.8125 Z M 54.488281 243.8125 " fill-opacity="1" fill-rule="evenodd"/></g></g></g><g clip-path="url(#0205367602)"><path fill="#feb200" d="M 245.484375 142.554688 C 253.515625 142.554688 253.542969 211.820312 253.542969 221.226562 C 253.542969 232.640625 236.207031 232.570312 236.207031 245.90625 C 236.207031 249.164062 236.199219 252.296875 236.195312 255.351562 C 236.789062 264.28125 245.363281 269.640625 251.507812 264.65625 C 257.652344 259.671875 257.207031 254.246094 258.425781 246.980469 C 261.117188 230.957031 276.671875 213.472656 278.261719 190.609375 C 280.050781 164.953125 276.246094 140.601562 261.492188 125.21875 C 242.394531 105.304688 225.914062 115.671875 195.054688 107.398438 C 150.667969 95.507812 99.335938 123.328125 111.847656 190.609375 C 117.070312 218.699219 108.542969 244.691406 129.6875 258.890625 C 150.109375 272.601562 156.152344 253.742188 156.21875 249.914062 L 156.386719 240.160156 C 156.386719 237.46875 155.253906 236.09375 148.433594 230.902344 C 123.71875 212.078125 136.089844 141.675781 162.601562 141.675781 C 189.109375 141.675781 201.484375 212.078125 176.769531 230.902344 C 169.949219 236.09375 168.8125 237.46875 168.8125 240.164062 C 168.867188 243.363281 168.871094 243.398438 168.976562 249.761719 C 169.085938 256.121094 170.964844 270.046875 181.589844 271.5 C 182.476562 271.621094 186.171875 272.324219 187.074219 272.410156 C 190.441406 272.410156 192.007812 273.003906 195.054688 273.816406 C 200.058594 275.15625 203.300781 274.15625 209.433594 276.832031 C 215.570312 279.511719 224.066406 271.375 224.066406 264.101562 C 224.058594 256.828125 224.03125 252.34375 224.03125 245.90625 C 224.03125 232.570312 206.695312 232.640625 206.695312 221.226562 C 206.695312 211.820312 206.722656 142.554688 214.753906 142.554688 C 215.679688 142.554688 217.152344 143.976562 217.152344 146.738281 L 217.152344 189.496094 C 217.136719 195.648438 217.351562 200.351562 221.417969 200.351562 C 225.484375 200.351562 225.15625 191.960938 225.15625 189.335938 C 225.15625 188.636719 227 147.820312 227.042969 147.175781 C 227.273438 143.8125 227.863281 141.675781 230.121094 141.675781 C 232.371094 141.675781 233.308594 143.8125 233.53125 147.175781 C 233.578125 147.820312 235.082031 188.636719 235.082031 189.335938 C 235.082031 191.960938 234.753906 200.351562 238.820312 200.351562 C 242.886719 200.351562 243.097656 195.648438 243.085938 189.496094 L 243.085938 146.738281 C 243.085938 143.976562 244.558594 142.554688 245.484375 142.554688 Z M 97.289062 185.589844 C 100.914062 185.859375 102.457031 186.132812 103.640625 181.875 C 104.820312 177.621094 104.726562 169.824219 100.839844 169.851562 C 96.960938 169.882812 91.488281 172.875 92.847656 179.890625 C 93.640625 183.960938 93.664062 185.324219 97.289062 185.589844 Z M 104.296875 221.347656 C 107.273438 220.6875 107.507812 211.734375 107.167969 207.375 C 106.824219 203.015625 106.507812 188.003906 99.246094 191.171875 C 91.988281 194.339844 92.582031 198.183594 95.789062 204.527344 C 97.648438 208.203125 101.324219 222.007812 104.296875 221.347656 Z M 280.523438 225.722656 C 277.730469 224.503906 274.648438 226.867188 272.359375 230.589844 C 270.066406 234.3125 261.476562 246.628906 269.210938 248.347656 C 276.945312 250.066406 281.742188 244.910156 282.886719 237.894531 C 283.550781 233.824219 283.316406 226.9375 280.523438 225.722656 " fill-opacity="1" fill-rule="evenodd"/></g></svg>